<svg width="491" height="491" viewBox="0 0 491 491" fill="none" xmlns="http://www.w3.org/2000/svg">
<g opacity="0.998">
<path fill-rule="evenodd" clip-rule="evenodd" d="M284.248 58C284.738 58 285.229 58 285.719 58C286.166 58.607 286.248 59.2606 285.964 59.9608C284.901 61.0229 283.839 62.085 282.776 63.1471C283.669 63.6272 284.241 64.3625 284.493 65.3529C285.463 64.7077 286.199 64.9528 286.7 66.0882C282.012 81.7783 276.943 97.3012 271.495 112.657C270.841 112.984 270.187 112.984 269.533 112.657C269.15 111.314 268.905 109.925 268.798 108.49C266.883 113.904 265.575 119.459 264.874 125.157C263.824 146.492 263.905 167.816 265.119 189.127C265.202 191.963 264.876 194.741 264.138 197.461C264.914 203.568 265.159 209.695 264.874 215.843C264.359 216.342 263.787 216.424 263.157 216.088C262.654 215.073 262.246 214.011 261.931 212.902C261.879 214.799 261.471 216.597 260.705 218.294C259.657 217.818 259.085 217 258.988 215.843C257.562 197.622 255.6 179.485 253.102 161.431C254.431 160.84 255.248 161.33 255.555 162.902C254.553 157.266 253.082 151.71 251.14 146.235C248.019 140.959 245.976 135.322 245.01 129.324C245.708 126.576 246.607 123.88 247.707 121.235C251.269 113.903 254.785 106.55 258.252 99.1765C258.089 99.0131 257.925 98.8497 257.762 98.6863C237.803 117.737 218.511 137.59 199.886 158.245C196.744 159.112 195.272 161.237 195.471 164.618C196.012 168.312 197.483 171.579 199.886 174.422C209.88 180.688 219.118 187.96 227.598 196.235C231.713 201.82 235.637 207.539 239.369 213.392C241.167 216.495 242.557 219.763 243.538 223.196C245.007 223.767 246.479 224.338 247.952 224.912C252.275 225.138 256.362 226.199 260.214 228.098C260.67 227.515 260.833 226.862 260.705 226.137C262.249 225.996 263.721 226.241 265.119 226.873C270.304 230.911 274.636 235.731 278.117 241.333C280.577 246.25 283.029 251.152 285.474 256.039C288.101 260.054 291.452 263.322 295.529 265.843C296.14 266.599 296.14 267.334 295.529 268.049C293.694 268.087 291.896 267.924 290.133 267.559C291.235 268.537 291.726 269.762 291.605 271.235C290.611 271.156 289.63 271.238 288.662 271.48C290.743 273.89 293.114 275.932 295.774 277.608C296.585 281.325 295.196 282.714 291.605 281.774C291.833 282.411 291.833 283.147 291.605 283.98C289.404 284.228 287.524 283.575 285.964 282.02C285.523 282.642 284.951 283.132 284.248 283.49C284.728 284.216 285.301 284.87 285.964 285.451C286.364 287.99 285.464 288.562 283.267 287.167C278.207 283.019 275.1 277.709 273.948 271.235C274.464 271.308 274.954 271.227 275.419 270.99C273.051 265.198 270.68 259.397 268.307 253.588C264.565 248.083 259.578 244.161 253.348 241.824C252.77 243.241 252.443 244.711 252.367 246.235C251.876 246.235 251.386 246.235 250.895 246.235C251.035 253.442 250.871 260.632 250.405 267.804C249.914 267.804 249.424 267.804 248.933 267.804C248.689 266.34 248.444 264.869 248.198 263.392C248.565 284.717 249.138 306.04 249.914 327.363C249.832 331.366 249.751 335.369 249.669 339.373C249.528 340.545 249.283 341.688 248.933 342.804C247.867 343.487 246.968 343.324 246.236 342.314C245.404 335.312 244.914 328.286 244.764 321.235C243.773 315.994 242.792 310.765 241.821 305.549C240.931 295.763 240.359 285.959 240.105 276.137C239.456 276.221 238.884 276.057 238.388 275.647C238.225 274.667 238.061 273.686 237.898 272.706C237.336 264.548 237.009 256.377 236.917 248.196C236.823 247.178 236.577 246.198 236.181 245.255C229.073 248.554 223.515 253.537 219.505 260.206C218.466 260.766 217.485 261.011 216.562 260.941C214.335 264.822 212.046 268.661 209.695 272.461C210.16 272.698 210.651 272.779 211.167 272.706C210.835 274.513 210.099 276.147 208.96 277.608C206.083 281.143 202.65 283.92 198.66 285.941C198.077 285.42 197.832 284.766 197.924 283.98C195.893 283.888 193.931 283.561 192.038 283C191.96 282.167 192.041 281.35 192.283 280.549C193.304 279.292 194.203 277.984 194.981 276.627C193.745 278.225 192.111 279.042 190.076 279.078C190.614 277.143 191.186 275.182 191.793 273.196C194.012 271.066 195.728 268.615 196.943 265.843C197.632 265.611 197.96 265.121 197.924 264.373C198.335 264.205 198.499 263.878 198.414 263.392C198.825 263.224 198.989 262.898 198.905 262.412C199.316 262.244 199.48 261.918 199.395 261.431C199.806 261.264 199.97 260.937 199.886 260.451C204.684 250.295 210.896 241.063 218.524 232.755C223.533 228.415 229.337 225.719 235.936 224.667C237.095 225.163 237.75 225.816 237.898 226.627C239.141 226.498 240.04 225.926 240.595 224.912C239.212 223.201 237.823 221.486 236.426 219.765C236.323 220.403 236.405 221.057 236.671 221.725C236.657 222.475 236.33 223.047 235.69 223.441C233.77 223.557 231.972 223.149 230.295 222.216C226.684 217.218 223.17 212.152 219.75 207.02C216.578 203.358 213.226 199.845 209.695 196.48C200.075 189.643 190.592 182.617 181.248 175.402C179.513 173.325 177.96 171.119 176.588 168.784C176.037 167.342 175.873 165.872 176.098 164.373C176.593 163.962 177.166 163.799 177.814 163.882C178.64 160.026 180.439 156.677 183.21 153.833C182.335 153.31 182.09 152.575 182.474 151.627C190.714 142.412 199.297 133.506 208.224 124.912C222.494 111.3 237.045 98.0653 251.876 85.2059C252.624 84.7115 253.442 84.4664 254.329 84.4706C254.13 85.5244 253.885 86.5048 253.593 87.4118C258.562 83.2632 263.385 78.9332 268.062 74.4216C267.031 73.5738 267.113 72.6751 268.307 71.7255C273.281 66.6666 278.594 62.0914 284.248 58ZM251.386 88.3922C252.612 88.3975 252.694 88.7243 251.631 89.3725C251.403 89.0812 251.321 88.7544 251.386 88.3922ZM256.781 168.294C257.637 169.953 257.882 171.751 257.517 173.686C257.164 171.9 256.919 170.102 256.781 168.294ZM204.79 261.922C206.487 257.55 208.694 253.465 211.412 249.667C209.481 253.85 207.274 257.935 204.79 261.922ZM204.79 261.922C204.344 263.633 203.527 265.104 202.338 266.333C202.784 264.622 203.602 263.151 204.79 261.922ZM200.867 269.275C200.902 270.023 200.575 270.513 199.886 270.745C199.85 269.997 200.177 269.506 200.867 269.275ZM199.886 270.745C199.922 271.494 199.594 271.984 198.905 272.216C198.869 271.467 199.196 270.977 199.886 270.745ZM196.452 275.157C196.452 276.137 195.962 276.627 194.981 276.627C195.308 275.974 195.799 275.484 196.452 275.157Z" fill="#B20342"/>
<path fill-rule="evenodd" clip-rule="evenodd" d="M372.043 207.51C375.745 205.704 379.588 204.233 383.569 203.098C385.056 203.181 385.629 203.835 385.286 205.059C379.512 207.535 373.953 210.395 368.61 213.637C348.646 227.378 332.052 244.29 318.826 264.373C319.559 262.901 320.704 261.921 322.26 261.431C322.887 261.487 323.296 261.814 323.486 262.412C316.139 271.542 309.272 281.019 302.886 290.843C303.468 290.87 304.122 291.033 304.848 291.333C301.321 298.138 297.724 304.919 294.057 311.676C294.574 312.357 294.656 313.092 294.302 313.882C276.323 349.332 261.528 386.015 249.914 423.931C249.181 424.18 248.608 423.935 248.198 423.196C247.955 422.229 247.873 421.249 247.952 420.255C247.597 422.15 247.27 424.11 246.971 426.137C247.554 426.164 248.207 426.327 248.933 426.627C249.352 428.251 249.27 429.884 248.688 431.529C248.159 432.458 247.505 432.621 246.726 432.02C246.375 432.286 246.129 432.613 245.99 433C245.337 433 244.682 433 244.029 433C243.568 431.965 242.996 430.984 242.312 430.059C241.404 423.467 239.851 417.095 237.652 410.941C238.3 413.689 238.545 416.467 238.388 419.275C237.826 419.744 237.335 419.581 236.917 418.784C228.703 396.278 220.201 373.893 211.412 351.627C205.748 338.836 199.699 326.254 193.264 313.882C193.012 312.037 193.748 311.547 195.471 312.412C197.61 316.038 199.735 319.632 201.848 323.196C192.309 302.159 180.293 282.714 165.798 264.863C164.864 263.911 164.456 262.768 164.571 261.431C166.268 261.89 167.658 262.871 168.74 264.373C169.068 264.046 169.068 263.719 168.74 263.392C154.046 242.987 136.308 225.749 115.524 211.676C111.275 209.268 106.943 207.062 102.526 205.059C102.51 203.894 103.164 203.24 104.488 203.098C107.877 204.344 111.229 205.651 114.543 207.02C109.921 203.812 104.852 201.525 99.3381 200.157C99.4666 199.432 99.3031 198.779 98.8476 198.196C97.098 197.506 95.5448 196.526 94.1881 195.255C93.8611 194.765 93.8611 194.275 94.1881 193.784C95.0347 193.257 95.9339 193.175 96.8857 193.539C100.178 194.799 103.448 195.943 106.695 196.971C105.245 195.435 105.572 194.455 107.676 194.029C105.431 193.158 103.469 191.932 101.79 190.353C101.827 189.255 102.399 188.765 103.507 188.882C111.219 191.591 118.086 195.675 124.107 201.137C124.319 201.676 124.074 202.003 123.371 202.118C120.93 201.385 120.767 201.794 122.881 203.343C146.348 220.096 165.558 240.766 180.512 265.353C180.293 263.913 180.048 262.442 179.776 260.941C180.501 260.813 181.155 260.976 181.738 261.431C184.448 265.46 186.574 269.79 188.114 274.422C187.681 274.96 187.19 275.205 186.643 275.157C186.888 275.647 187.133 276.137 187.379 276.627C189.85 280.919 192.792 284.84 196.207 288.392C198.857 292.844 201.309 297.419 203.564 302.118C204.088 301.244 204.823 300.999 205.771 301.382C206.997 303.779 208.713 305.658 210.921 307.02C213.172 311.027 215.297 315.112 217.298 319.275C224.288 335.168 230.991 351.181 237.407 367.314C240.929 376.329 243.3 385.643 244.519 395.255C244.55 396.226 244.223 397.043 243.538 397.706C243.783 398.196 244.029 398.686 244.274 399.176C247.148 385.888 250.255 372.652 253.593 359.471C255.589 352.459 258.451 345.842 262.176 339.618C262.716 339.406 263.043 339.651 263.157 340.353C262.718 341.481 262.636 342.625 262.912 343.784C269.916 324.232 278.499 305.441 288.662 287.412C289.857 285.972 290.674 286.135 291.114 287.902C290.924 288.772 290.598 289.589 290.133 290.353C290.303 290.939 290.548 290.939 290.869 290.353C291.725 288.477 292.706 286.68 293.812 284.961C297.247 282.011 299.699 278.416 301.169 274.176C300.524 275.416 299.951 275.416 299.452 274.176C301.117 269.046 303.651 264.47 307.055 260.451C307.943 261.424 308.024 262.486 307.3 263.637C307.354 264.481 307.6 264.563 308.036 263.882C313.517 255.298 319.567 247.128 326.183 239.373C325.975 238.61 325.566 237.875 324.957 237.167C329.29 230.871 334.358 225.152 340.162 220.01C353.633 207.312 368.838 197.181 385.776 189.618C387.249 188.975 388.721 188.894 390.19 189.373C390.109 189.536 390.027 189.7 389.945 189.863C387.411 191.415 384.877 192.967 382.343 194.52C381.852 195.337 381.362 196.153 380.871 196.971C384.629 195.91 388.389 194.684 392.152 193.294C393.588 193.631 393.915 194.449 393.133 195.745C391.835 196.803 390.363 197.457 388.719 197.706C388.819 198.632 388.492 199.368 387.738 199.912C382.152 201.805 376.92 204.338 372.043 207.51ZM114.543 207.02C115.292 206.984 115.782 207.311 116.014 208C115.265 208.036 114.775 207.709 114.543 207.02ZM372.043 207.51C371.811 208.199 371.32 208.526 370.571 208.49C370.803 207.801 371.294 207.474 372.043 207.51ZM370.571 208.49C370.339 209.179 369.849 209.506 369.1 209.471C369.332 208.781 369.822 208.454 370.571 208.49ZM211.412 249.667C209.481 253.85 207.274 257.935 204.79 261.922C206.487 257.55 208.694 253.465 211.412 249.667ZM204.79 261.922C204.344 263.633 203.527 265.104 202.338 266.333C202.784 264.622 203.602 263.151 204.79 261.922ZM196.943 265.843C197.632 265.611 197.96 265.121 197.924 264.373C197.234 264.604 196.907 265.095 196.943 265.843ZM200.867 269.275C200.902 270.023 200.575 270.513 199.886 270.745C199.85 269.997 200.177 269.506 200.867 269.275ZM199.886 270.745C199.922 271.494 199.594 271.984 198.905 272.216C198.869 271.467 199.196 270.977 199.886 270.745ZM196.452 275.157C196.452 276.137 195.962 276.627 194.981 276.627C195.308 275.974 195.799 275.484 196.452 275.157ZM289.643 315.843C289.961 313.595 291.106 312.206 293.076 311.676C291.747 312.965 290.602 314.353 289.643 315.843ZM201.848 323.196C202.848 323.888 203.338 324.868 203.319 326.137C202.579 325.313 202.089 324.333 201.848 323.196ZM215.581 352.118C216.46 353.062 216.951 354.205 217.052 355.549C216.173 354.605 215.682 353.461 215.581 352.118ZM271.986 352.608C271.884 353.951 271.394 355.095 270.514 356.039C270.616 354.696 271.106 353.552 271.986 352.608ZM217.052 355.549C225.41 373.409 232.276 391.873 237.652 410.941C230.989 392.438 224.123 373.974 217.052 355.549ZM270.514 356.039C265.417 369.603 260.267 383.165 255.064 396.725C252.53 404.581 250.16 412.425 247.952 420.255C247.841 417.718 248.249 415.267 249.179 412.902C254.809 393.328 261.921 374.374 270.514 356.039Z" fill="#B20342"/>
<path fill-rule="evenodd" clip-rule="evenodd" d="M137.105 231.529C137.992 231.525 138.809 231.77 139.557 232.265C146.422 238.794 152.553 245.902 157.95 253.588C158.445 254.336 158.69 255.153 158.686 256.039C158.17 256.112 157.679 256.031 157.214 255.794C150.43 248.359 143.644 240.925 136.86 233.49C136.575 232.79 136.657 232.136 137.105 231.529Z" fill="#B20342"/>
<path fill-rule="evenodd" clip-rule="evenodd" d="M348.99 231.529C350.743 231.763 351.152 232.58 350.217 233.98C343.7 241.303 337.079 248.493 330.352 255.549C329.862 256.202 329.371 256.202 328.881 255.549C330.189 252.932 331.742 250.481 333.54 248.196C338.458 242.384 343.608 236.828 348.99 231.529Z" fill="#B20342"/>
<path fill-rule="evenodd" clip-rule="evenodd" d="M199.886 260.451C199.475 260.619 199.311 260.945 199.395 261.431C198.984 261.599 198.82 261.925 198.905 262.412C198.494 262.579 198.33 262.906 198.414 263.392C198.003 263.56 197.839 263.886 197.924 264.373C197.234 264.604 196.907 265.095 196.943 265.843C194.798 268.639 192.182 270.927 189.095 272.706C188.533 272.39 188.043 271.981 187.624 271.48C191.212 267.729 194.645 263.807 197.924 259.716C199.049 258.629 199.703 258.874 199.886 260.451Z" fill="#B20342"/>
<path fill-rule="evenodd" clip-rule="evenodd" d="M400 338.392C400 339.209 400 340.026 400 340.843C399.576 341.425 399.086 341.998 398.529 342.559C399.747 343.678 399.829 344.904 398.774 346.235C395.688 349.616 391.846 351.495 387.248 351.873C383.491 352.118 379.731 352.199 375.967 352.118C366.386 350.229 358.13 345.818 351.198 338.882C350.87 339.209 350.87 339.536 351.198 339.863C353.571 341.81 354.96 344.261 355.367 347.216C354.851 347.289 354.36 347.207 353.895 346.971C349.061 343.118 344.892 338.625 341.388 333.49C336.628 325.428 332.049 317.258 327.655 308.98C325.628 306.464 323.42 304.094 321.033 301.873C318.068 299.045 314.88 296.512 311.469 294.275C310.38 292.852 310.707 291.872 312.45 291.333C314.506 292.805 314.915 292.56 313.676 290.598C313.833 289.788 314.324 289.298 315.148 289.127C313.878 288.541 312.57 288.05 311.224 287.657C310.725 287.143 310.643 286.571 310.979 285.941C311.714 285.206 312.45 284.471 313.186 283.735C315.059 283.62 316.858 283.212 318.581 282.51C325.968 285.18 332.099 289.592 336.974 295.745C342.984 305.959 348.869 316.253 354.631 326.627C355.003 327.74 354.921 328.802 354.386 329.814C354.975 330.256 355.384 330.828 355.612 331.529C356.36 330.261 357.423 329.853 358.8 330.304C360.886 331.632 362.93 333.021 364.931 334.471C365.284 335.261 365.203 335.996 364.686 336.676C363.705 336.676 362.724 336.676 361.743 336.676C368.153 340.321 375.02 341.955 382.343 341.578C384.769 341.381 387.058 340.727 389.21 339.618C391.476 337.197 393.519 334.665 395.34 332.02C397.965 333.878 398.211 336.084 396.076 338.637C396.937 338.706 397.755 338.461 398.529 337.902C398.978 338.209 399.469 338.373 400 338.392Z" fill="#B20342"/>
<path fill-rule="evenodd" clip-rule="evenodd" d="M91 344.275C91 343.621 91 342.967 91 342.314C92.353 341.555 93.5792 341.718 94.6786 342.804C94.4545 341.457 94.2093 340.069 93.9429 338.637C93.8251 337.154 94.3973 336.092 95.6595 335.451C97.5137 338.071 99.5573 340.603 101.79 343.049C106.484 345.109 111.389 345.762 116.505 345.01C120.806 344.122 124.893 342.651 128.767 340.598C129.353 340.277 129.353 340.032 128.767 339.863C127.934 340.442 127.116 340.442 126.314 339.863C125.909 339.397 125.828 338.906 126.069 338.392C128.411 336.447 130.945 334.813 133.671 333.49C134.473 333.72 135.045 334.21 135.388 334.961C135.715 334.634 136.042 334.307 136.369 333.98C136.219 333.028 136.219 332.048 136.369 331.039C141.562 321.804 146.63 312.49 151.574 303.098C156.338 295.614 162.796 290.14 170.948 286.676C173.509 286.991 176.126 287.4 178.795 287.902C179.546 288.448 180.037 289.183 180.267 290.108C180.103 290.516 179.94 290.925 179.776 291.333C178.651 291.79 177.506 292.199 176.343 292.559C177.374 293.408 177.537 294.389 176.833 295.5C177.649 295.63 178.385 295.385 179.04 294.765C180.215 295.54 180.46 296.52 179.776 297.706C172.593 302.679 166.462 308.725 161.383 315.843C158.168 322.761 154.571 329.46 150.593 335.941C147.14 341.518 142.808 346.338 137.595 350.402C136.562 350.821 135.908 350.494 135.633 349.422C136.662 347.575 137.888 345.859 139.312 344.275C139.639 343.948 139.639 343.621 139.312 343.294C132.626 349.699 124.697 353.702 115.524 355.304C111.273 355.631 107.022 355.631 102.771 355.304C97.9705 354.908 94.292 352.702 91.7357 348.686C91.4296 347.724 91.6749 346.906 92.4714 346.235C92.209 345.372 91.7185 344.719 91 344.275Z" fill="#B20342"/>
<path fill-rule="evenodd" clip-rule="evenodd" d="M375.967 352.118C379.878 353.595 383.884 353.758 387.983 352.608C390.234 353.859 390.152 355.085 387.738 356.284C382.23 357.21 376.834 356.72 371.552 354.814C370.594 354.347 369.776 353.693 369.1 352.853C371.293 352.149 373.582 351.903 375.967 352.118Z" fill="#B20342"/>
<path fill-rule="evenodd" clip-rule="evenodd" d="M116.505 355.549C117.985 355.468 119.457 355.55 120.919 355.794C121.315 355.945 121.642 356.19 121.9 356.529C120.062 358.467 117.773 359.528 115.033 359.716C110.71 360.843 106.459 360.679 102.281 359.225C101.287 358.541 101.123 357.724 101.79 356.774C106.83 357.349 111.735 356.94 116.505 355.549Z" fill="#B20342"/>
</g>
</svg>
