<svg xmlns="http://www.w3.org/2000/svg" fill="#e8eeec" viewBox="0 0 222.35 161.03"><title>Asset 8</title><g id="Layer_2" data-name="Layer 2"><g id="Layer_1-2" data-name="Layer 1"><path d="M133.57,83.09c1.67-1.89,3.17-3.73,4.82-5.43,8.84-9.06,22.13-8.29,30,1.67,4.16,5.28,5,11.26,3.86,17.64-.6,3.28-2.46,4.94-5.14,5.22a8.18,8.18,0,0,1-8.38-4.56,8.53,8.53,0,0,1-.63-1.58c-.39-1.54-1-2.84-3-2.74,1.61-2,4.92-1.74,6.74.35A16.28,16.28,0,0,0,164,96.28c.75.56,2.19,1.13,2.75.77a3.3,3.3,0,0,0,1.18-2.78,10.84,10.84,0,0,0-4.48-7c-2.58-1.87-5.3-1.6-8-.35a16.14,16.14,0,0,0-7.44,7c-2.8,5-5.25,10.26-7.82,15.42-6,12.05-6.81,13.23-15.67,22.61,2.7,1.66,5.07.79,7.18-1a45.22,45.22,0,0,0,14-21.71l.45-1.41c3.93.46,7.83,1,11.76,1.38,6.68.59,13.31.75,19.46-2.69a10.21,10.21,0,0,0,4.64-5.47c2.38-6.12,1.51-12.17-.56-18.08-1.74-5-3.89-9.81-5.91-14.7-3.32-8.06-3.94-16.2-.5-24.38,3.59-8.56,11.05-13.77,19.45-13.73,7.28.05,12.92,4.85,13.54,11.6a13.22,13.22,0,0,1-1.81,7.57c-1.46,2.75-2.74,5.6-4.13,8.39-.21.42-.55,1-.91,1.05A1.4,1.4,0,0,1,200,58c-.39-1.33-1-2.76-.83-4,.36-2.59,1.28-5.1,1.8-7.68.67-3.34-.75-4.53-4-3.29-4.9,1.88-6.38,6.08-6.89,10.78-.64,6,1.82,11.19,4.18,16.41,2,4.46,4.26,8.84,6.14,13.36a34,34,0,0,1,2.34,18.3c-1.13,7.59-5.84,12.88-11.87,17.17-7.3,5.2-15.52,6.9-24.31,6.37-6.34-.38-12.67-.82-19-1.23-.61,0-1.23,0-2,0v3.43c17.22-.76,32.34,4.34,44.84,16.73A12.3,12.3,0,0,1,179.6,148c-6.09-.91-12.13-2.29-18.24-2.85-9.61-.88-19.26-.85-28.59,2.05a71.29,71.29,0,0,0-10.52,4.56c-2.13,1.08-4,2.21-5.65-.3,6.75-6.21,14.62-10.71,23.91-12.06s18.76-1.71,28.14.07c2.58.49,5.18.81,7.86,1.22a47.32,47.32,0,0,0-23.24-6.54c-10.76-.37-21,1.37-30.41,7a33.07,33.07,0,0,0-11.38,11.05c-.49.78-1.06,1.51-1.7,2.41-.81-1.21-1.49-2.24-2.18-3.25-4.69-6.86-11.29-11.05-19-13.9C76.88,133.13,65,133,53.08,136.27a55.84,55.84,0,0,0-10.82,4.8c2.48-.42,4.94-.87,7.42-1.26,11.44-1.76,22.89-2.49,34.23.56a36,36,0,0,1,15.89,8.68c.85.81,1.55,1.78,2.4,2.77-1,1.25-2,1.91-3.65.89-10.4-6.55-21.9-8.75-33.95-7.88-7.62.56-15.19,1.86-22.77,2.9-4,.55-7.88.48-11.38-2-1.23-.88-1.35-1.51-.2-2.61a55,55,0,0,1,25.2-13.68,63.87,63.87,0,0,1,19-1.79L74.22,124c-4.28.23-8.47.37-12.65.68-7.26.54-14.6,1.91-21.73-.28-11.38-3.51-19.93-10.18-22.37-22.57a33.05,33.05,0,0,1,1.69-17.47c1.79-5,3.94-9.92,6.1-14.79,2.89-6.53,4.81-13.15,2.56-20.27-1-3.14-2.58-5.94-6.24-6.64-3-.59-3.82.34-2.93,3.33a52.6,52.6,0,0,1,1.49,5.64,7.15,7.15,0,0,1-2.17,7c-.32-.56-.54-.91-.71-1.28a49.53,49.53,0,0,0-3.05-6.6c-5.56-8.54-1.68-18.2,8.3-20.21,6.64-1.35,12.09,1.16,16.79,5.63,6.25,6,7.86,13.46,7.22,21.74-.43,5.44-2.81,10.25-4.59,15.27-1.4,4-2.87,7.9-4,11.93a24.2,24.2,0,0,0,.5,15.74,11.94,11.94,0,0,0,7.55,7.11c6,2.19,12,1.56,18.07.92l8.26-.88c2.16,4.26,4.1,8.4,6.32,12.37a37.31,37.31,0,0,0,9,10.81c2.64,2.15,4,2.26,6.47.8a63.67,63.67,0,0,1-12.58-17c-3-6-5.65-12.06-8.5-18.09a23.79,23.79,0,0,0-7-8.52c-2.43-1.9-5.13-2.8-8.08-1.44a9.36,9.36,0,0,0-5.62,7.51,3,3,0,0,0,1.19,2.4,2.14,2.14,0,0,0,3.06-.92c.41-.71.76-1.45,1.17-2.15,1.44-2.44,4.2-2.69,6.28-.59-2.07.74-2,.75-2.95,3.2a8.7,8.7,0,0,1-6.67,5.79c-3.8.82-6.91-1.82-7.18-6.5-.45-8,1.84-15,8.25-20.31,6.73-5.53,17.27-5.19,24.13.9,2.33,2.06,4.34,4.49,6.71,7,.12-2,.36-4.07.33-6.08C86.39,64.65,81.42,54.7,71,47.51A38.33,38.33,0,0,1,60.24,37.09C53.48,26.72,57.1,11.32,67.85,5.31a5.53,5.53,0,0,1,4-.31c1.89.63,2.09,2.68.61,4.07a12.41,12.41,0,0,1-2.43,1.75c-7.17,4-10.22,14.45-1.4,21.15a88.2,88.2,0,0,0,12.14,7.17,59.6,59.6,0,0,1,23.35,22.21,39.26,39.26,0,0,1,6,19.23,4,4,0,0,0,.14.9c1.06-3.92,2.07-8.27,3.44-12.51,3.49-10.86,10.27-19.35,19.48-25.9,3.94-2.8,8.24-5.08,12.22-7.82,2.57-1.76,5.29-3.57,7.19-6,4.66-5.88,3.28-13.06-2.88-17.35a23.58,23.58,0,0,1-2.7-2,3.45,3.45,0,0,1-.42-4.6c1.23-1.45,2.76-1,3.87,0,2.89,2.49,6,4.89,8.34,7.83,3.71,4.58,3.61,10.13,2.79,15.68-1.18,8.08-6.37,13.45-12.29,18.32-4.14,3.4-8.11,6.94-10.93,11.6C134.37,65.38,132.11,76.37,133.57,83.09Z"/><path d="M136.83,27c0,1.63.07,3.27,0,4.9-.12,2.29-1.14,3.46-2.89,3.49-1.54,0-2.84-1.44-3-3.5a30.27,30.27,0,0,1-.09-4.15c.59-10.83-6.59-18-16.16-19.78-9.13-1.74-16.9.62-22.44,8.6C90,19.76,89.62,23.33,89.49,27a46,46,0,0,1,0,4.7A5.59,5.59,0,0,1,88,34.79c-1.6,1.49-3.82.58-4.32-1.56C79.84,16.92,93,.17,109.8,0c11.14-.11,23.78,8.88,26.42,19,.67,2.57.62,5.33.9,8Z"/><path d="M122.63,32c.08,5-2.82,8.57-6.06,11.9-1.79,1.84-3.71,3.56-5.55,5.36-.93.92-1.55,1-2.57-.12-2.36-2.68-5-5.07-7.44-7.73-5-5.55-4.83-12.68.22-17.57C107,18.34,116.64,19.31,120.9,26c1.1,1.72,1.49,3.89,2.2,5.86Z"/><path d="M108.89,161c-5.34-.07-10.59-5.3-10.44-10.4.18-6.22,4.93-10.56,11.46-10.48a10.58,10.58,0,0,1,10.38,10.53C120.22,156.17,114.78,161.11,108.89,161Z"/><path d="M61.2,58.86a2.67,2.67,0,0,0,2.65,2.62,2.43,2.43,0,0,0,2.42-2.38,2.9,2.9,0,0,0-2.56-2.78A2.54,2.54,0,0,0,61.2,58.86Z"/><path d="M217.1,92a5.07,5.07,0,0,1,5.25,5.2,5.27,5.27,0,0,1-5.07,5.25c-2.61,0-4.7-2.41-4.78-5.5A4.83,4.83,0,0,1,217.1,92Z"/><path d="M9.35,97.56a4.8,4.8,0,0,1-4.74,5C2,102.56,0,100.4,0,97.42A4.73,4.73,0,0,1,4.61,92.5,4.86,4.86,0,0,1,9.35,97.56Z"/><path d="M46.45,19.85c-.09,3-1.8,4.76-4.47,4.67a4.2,4.2,0,0,1-4.27-4.67,4.55,4.55,0,0,1,4.52-4.74A4.26,4.26,0,0,1,46.45,19.85Z"/><path d="M175.42,24.56c-2.84-.08-4.19-1.56-4.09-4.45s1.57-4.59,4.12-4.55a4.37,4.37,0,0,1,4.35,4.67A4.19,4.19,0,0,1,175.42,24.56Z"/><path d="M203.69,63.65a3.33,3.33,0,0,1,3.72,3.51c0,2.56-1.73,4.55-4,4.57-2.09,0-3.44-1.43-3.48-3.76C199.89,65.16,201.16,63.69,203.69,63.65Z"/><path d="M155.64,59.39a3.55,3.55,0,0,1,3.69-3.62,3,3,0,0,1,3.19,3.12,4,4,0,0,1-3.63,4A3.19,3.19,0,0,1,155.64,59.39Z"/><path d="M16,71.75c-.31-.42-1.15-1.08-1.33-1.9-.32-1.44,1.07-3.14,2.31-3.06a2.13,2.13,0,0,1,2.22,2.26C19.2,70.53,18.13,71.68,16,71.75Z"/></g></g></svg>