<svg width="491" height="491" viewBox="0 0 491 491" fill="none" xmlns="http://www.w3.org/2000/svg">
<path d="M418 417H74V73C76.6686 73.0742 79.3496 73.198 82.0182 73.198C191.232 73.198 300.458 73.2104 409.672 73.2104C412.278 73.2104 414.885 73.2104 417.988 73.2104V416.988L418 417ZM399.407 91.9942H91.7616V398.117H399.407V91.9942Z" fill="#D9D9D9"/>
<path d="M172.366 230.361C172.961 234.544 173.718 238.145 173.942 241.77C174.637 253.13 178.832 255.963 190.276 256.087C221.157 256.434 252.051 256.335 282.945 256.211C290.106 256.186 297.305 255.716 304.417 254.837C314.086 253.649 317.09 249.405 316.842 238.627C316.631 229.619 313.18 225.424 303.722 225.14C277.992 224.36 252.262 224.137 226.519 223.704C223.044 223.642 219.556 223.704 215.572 223.704V180.692C217.508 180.692 219.68 180.692 221.84 180.692C241.228 180.692 260.615 180.89 279.99 180.568C287.115 180.444 294.277 179.405 301.327 178.217C308.65 176.992 312.671 171.832 312.833 164.568C313.019 156.5 310.164 152.318 301.985 150.821C294.761 149.497 287.351 148.668 280.015 148.581C255.688 148.309 231.348 148.395 207.008 148.544C200.442 148.581 193.851 149.088 187.322 149.794C178.547 150.734 174.488 155.473 174.203 164.506C174.116 167.377 174.19 170.248 174.19 173.676H106.122C101.865 139.164 109.3 115.654 144.947 109.169C162.014 106.064 179.527 104.69 196.892 104.158C230.454 103.131 264.066 102.599 297.628 103.18C317.388 103.527 337.433 103.7 356.449 111.001C369.63 116.062 379.461 124.439 381.149 138.867C382.514 150.548 382.998 162.626 381.596 174.245C379.771 189.391 367.57 195.244 354.376 199.043C352.675 199.538 350.975 200.033 348.84 200.651C356.176 202.99 363.015 204.759 369.531 207.321C379.572 211.281 384.761 219.348 386.548 229.706C388.844 242.983 388.881 256.236 385.22 269.315C382.142 280.328 375.141 288.433 364.492 291.947C353.147 295.684 341.343 299.632 329.589 300.226C288.704 302.304 247.756 303.554 206.821 303.963C184.12 304.198 161.207 303.789 139.052 297.479C111.559 289.646 107.202 276.059 105.142 255.939C104.434 248.984 104.298 241.944 104.372 234.952C104.385 233.405 106.383 230.572 107.5 230.559C129.097 230.3 150.707 230.361 172.366 230.361Z" fill="#D9D9D9"/>
<path d="M105.117 385.904V317.351C106.805 317.178 108.369 316.894 109.933 316.894C131.158 316.894 152.382 316.844 173.607 316.993C177.889 317.017 182.221 317.488 186.428 318.304C196.507 320.259 201.943 326.088 202.564 336.927C203.16 347.309 203.11 357.79 202.477 368.172C201.844 378.554 194.422 385.359 181.526 385.718C156.255 386.411 130.934 385.929 105.129 385.929L105.117 385.904ZM127.508 368.036C128.328 368.357 128.688 368.617 129.06 368.63C139.163 368.692 149.292 369.224 159.358 368.654C180.669 367.454 181.004 368.679 180.384 345.144C180.346 343.77 180.098 342.038 179.242 341.11C177.306 338.981 174.997 335.677 172.738 335.616C157.769 335.121 142.775 335.368 127.496 335.368V368.06L127.508 368.036Z" fill="#D9D9D9"/>
<path d="M218.613 347.557C217.57 341.617 215.386 335.752 215.833 330.097C216.54 321.101 221.306 317.166 230.491 316.955C245.944 316.597 261.422 316.535 276.875 316.943C288.58 317.252 292.353 323.13 291.521 338.561H271.65C271.24 337.014 270.743 335.133 270.048 332.534C260.491 332.534 250.921 332.411 241.364 332.671C239.999 332.708 238.696 334.539 237.355 335.529C238.41 336.841 239.192 338.734 240.57 339.365C253.143 345.181 265.816 350.786 279.01 356.713C279.295 353.645 279.519 351.108 279.792 348.237H298.931C298.931 352.407 299.601 356.602 298.745 360.45C297.889 364.348 298.807 365.858 302.382 367.157C306.751 368.741 310.847 371.067 315.265 373.171C314.757 374.247 314.421 374.965 314.062 375.683C308.29 387.166 308.253 387.253 297.02 381.66C294.19 380.249 292.415 380.694 289.448 382.006C283.602 384.58 277.061 386.721 270.743 386.869C255.141 387.24 239.49 386.745 223.888 385.929C212.903 385.359 207.852 379.333 207.678 368.333C207.653 366.687 207.653 365.029 207.678 363.383C207.74 352.655 209.974 349.784 218.625 347.569L218.613 347.557ZM270.917 371.228C271.016 370.832 271.116 370.424 271.228 370.028C260.479 365.462 249.792 360.71 238.919 356.478C236.66 355.6 232.067 355.723 231.323 357.01C229.771 359.683 229.3 363.581 229.895 366.687C230.231 368.481 233.458 370.956 235.456 371.03C247.272 371.439 259.101 371.228 270.93 371.228H270.917Z" fill="#D9D9D9"/>
<path d="M387.739 317.327V334.984H355.009V385.545H329.502V335.405H297.181V317.339H387.752L387.739 317.327Z" fill="#D9D9D9"/>
</svg>
