<svg width="491" height="491" viewBox="0 0 491 491" fill="none" xmlns="http://www.w3.org/2000/svg">
<path d="M58 98.4231V98C60.3192 98.9338 61.734 101.137 63.9219 102.261C64.4907 103.311 65.7305 103.545 66.489 104.391C67.9184 105.383 69.0561 106.784 70.7189 107.44C74.6717 110.592 78.7995 113.51 83.0441 116.268C83.6129 116.662 84.1672 117.056 84.736 117.465C86.18 118.398 87.4198 119.697 89.141 120.178C91.4601 122.28 94.3336 123.534 96.9007 125.271C98.5343 126.38 100.153 127.576 102.064 128.204C102.939 128.729 103.829 129.269 104.704 129.794C106.104 130.64 107.505 131.472 108.905 132.318L115.308 135.733C115.731 135.893 116.154 136.039 116.577 136.2C118.094 137.396 119.64 138.534 121.624 138.841C123.622 139.92 125.606 140.985 127.604 142.065C128.158 142.269 128.713 142.474 129.252 142.663C130.915 143.539 132.447 144.692 134.372 144.998C136.356 146.34 138.646 147.026 140.775 148.033C141.607 148.354 142.453 148.69 143.284 149.011C144.48 149.769 145.749 150.309 147.135 150.586C149.002 151.535 150.898 152.425 152.984 152.833C157.301 154.745 161.691 156.51 166.242 157.794C168.284 158.699 170.297 159.72 172.573 159.939C176.7 161.719 181.105 162.668 185.335 164.171C187.45 164.74 189.551 165.294 191.666 165.863C193.766 166.578 195.895 167.147 198.083 167.527C198.9 167.818 199.717 168.169 200.621 167.994C201.715 168.957 203.115 168.723 204.384 169C206.558 169.92 208.877 170.255 211.196 170.532C212.976 171.291 214.886 171.481 216.753 171.831C219.233 172.546 221.742 173.027 224.338 172.998C226.103 173.742 227.984 173.976 229.881 174.049C233.863 174.472 237.728 175.844 241.783 175.668C244.117 176.631 246.64 175.902 249.003 176.515C251.118 176.777 253.218 177.215 255.362 176.923C255.873 177.843 256.733 177.39 257.433 177.405C259.155 177.463 260.89 177.332 262.582 177.77C265.806 177.697 269.044 177.624 272.267 177.551C273.128 177.755 274.28 178.164 274.718 177.346C275.228 176.398 274.455 175.406 273.711 174.647C273.463 174.399 273.186 174.195 272.924 173.976C271.465 172.561 270.007 171.145 268.548 169.73C267.804 168.898 267.002 168.154 266.01 167.629C264.902 165.936 263.195 164.871 261.736 163.543C260.832 162.77 259.928 162.011 259.023 161.238C257.798 160.246 256.588 159.239 255.362 158.247C253.729 156.54 251.512 155.46 249.907 153.913C247.69 151.768 245.079 150.236 242.848 148.193C240.645 146.763 238.705 144.925 236.284 143.816C235.584 143.043 234.796 142.401 233.761 142.153C233.09 140.912 231.733 140.65 230.683 139.964C226.511 137.031 222.106 134.478 217.701 131.924C215.674 130.64 213.34 129.809 211.4 128.481C209.49 127.182 208.848 127.693 208.133 129.371C207.083 130.188 206.31 131.005 206.995 132.581C207.418 133.544 207.331 134.726 207.462 135.806C207.943 137.921 207.783 140.154 208.571 142.211C208.789 144.648 208.789 144.633 206.543 143.714C205.858 143.437 205.143 143.247 204.443 143.028C203.597 142.62 202.795 141.992 201.905 141.846C200.373 141.598 198.608 141.19 198.069 143.466C196.887 144.91 195.939 146.486 195.108 148.15C193.78 150.265 192.336 152.323 191.14 154.497C189.361 157.736 189.419 157.78 185.744 157.43C185.612 157.43 185.466 157.488 185.335 157.517C183.279 156.817 181.12 156.598 178.99 156.262C176.905 155.781 174.804 155.314 172.718 154.832C172.791 154.57 172.879 154.307 172.952 154.044C174.075 152.264 175.198 150.499 176.029 148.558C178.742 144.327 181.441 140.095 184.154 135.864C184.489 135.12 185.35 134.682 185.364 133.748C186.648 132.887 187.158 131.443 187.975 130.232C190.178 127.766 191.709 124.804 193.897 122.28C195.385 120.558 197.194 118.953 198.083 116.735C200.242 114.882 201.744 112.46 203.611 110.359C204.034 110.14 204.312 109.804 204.457 109.352C205.872 107.718 207.302 106.098 208.716 104.464C209.417 103.705 210.117 102.946 210.817 102.188C211.765 102.8 212.713 103.413 213.676 104.026C214.828 104.872 215.995 105.719 217.147 106.565C217.424 106.886 217.643 107.236 217.964 107.499C220.05 109.206 222.267 110.753 224.338 112.504C226.103 113.992 227.707 115.743 229.837 116.779C231.718 119.026 234.154 120.66 236.269 122.644C236.415 123.272 236.838 123.564 237.451 123.622C239.026 125.139 240.601 126.657 242.191 128.174C242.643 128.86 243.154 129.488 243.869 129.925C245.342 131.735 247.223 133.106 248.974 134.624C249.207 135.193 249.615 135.587 250.17 135.82C251.512 138.023 253.495 139.643 255.348 141.365C255.625 141.919 256.077 142.328 256.602 142.649C258.309 144.487 260.015 146.326 261.722 148.164C261.999 148.441 262.276 148.719 262.568 148.996C264.376 151.01 265.908 153.257 268.052 154.949C271.582 159.195 275.112 163.441 278.641 167.673C279.327 168.548 279.838 169.584 280.8 170.226C281.559 171.671 282.653 172.852 283.761 174.02C284.899 175.435 286.037 176.85 287.174 178.266C287.466 179.17 288.093 179.827 288.808 180.411C290.369 182.541 291.929 184.671 293.49 186.801C296.611 191.179 299.733 195.571 302.854 199.948C303.54 201.568 304.75 202.808 305.786 204.194C306.136 204.822 306.384 205.522 307.113 205.843C307.113 207.083 308.951 207.594 308.601 208.747C308.236 209.943 306.719 210.322 305.83 211.198C305.436 211.592 305.086 212.044 304.648 212.394C303.788 213.08 302.898 213.693 302.008 214.35C301.527 213.62 301.045 212.905 300.55 212.175C300.477 212.073 300.331 212.015 300.214 211.927C299.456 209.724 298.201 207.784 296.918 205.857C296.188 204.019 295.182 202.326 294.015 200.751C293.898 200.225 293.68 199.773 293.257 199.423C293.154 199.16 293.082 198.883 292.921 198.664C290.879 195.775 288.968 192.784 286.722 190.055C285.234 188.246 284.111 185.445 280.815 186.393L276.585 186.335C275.987 185.576 275.17 186.014 274.441 185.97C272.326 185.824 270.211 185.678 268.11 185.532C265.995 185.342 263.895 184.861 261.751 185.007C259.665 184.409 257.506 184.467 255.377 184.248C253.247 183.956 251.118 183.679 248.988 183.387L242.643 182.555L236.24 181.724C234.111 181.563 232.083 180.659 229.91 180.878C229.166 180.702 228.437 180.484 227.693 180.367C224.178 179.812 220.662 179.287 217.147 178.762C215.222 178.237 213.253 177.974 211.269 177.813C209.081 176.952 206.733 176.909 204.457 176.529C202.372 175.668 200.082 175.771 197.967 175.056C195.866 174.603 193.78 174.151 191.68 173.699C190.98 173.655 190.28 173.611 189.594 173.567C188.311 172.663 186.706 172.94 185.335 172.371C183.191 172.123 181.207 171.043 178.99 171.087C176.992 170.051 174.804 169.73 172.631 169.292C170.545 168.563 168.459 167.877 166.257 167.585C166.213 167.337 166.082 167.191 165.805 167.264C163.996 166.812 162.173 166.359 160.364 165.907C158.162 164.944 155.886 164.244 153.509 163.879C151.496 162.887 149.293 162.449 147.164 161.763L145.005 160.946C144.888 160.858 144.757 160.844 144.626 160.902C144.349 160.873 144.072 160.829 143.794 160.8C142.803 160.421 141.796 160.027 140.804 159.647C138.675 158.947 136.545 158.247 134.401 157.532C132.286 156.817 130.186 156.116 128.071 155.401C127.487 155.124 126.919 154.832 126.335 154.555C124.877 154.322 123.68 153.257 122.164 153.184C119.874 152.25 117.584 151.301 115.294 150.367C111.997 149.142 108.744 147.814 105.55 146.326C104.573 145.873 103.216 144.531 102.545 145.348C102.006 146.005 103.027 147.595 103.8 148.587C104.354 150.849 105.769 152.746 106.498 154.935C107.446 156.364 107.738 158.145 108.92 159.429C108.92 160.187 109.24 160.771 109.78 161.282C110.568 163.587 111.822 165.644 113.135 167.673C113.558 168.738 113.879 169.861 114.812 170.635C115.323 171.802 115.702 173.027 116.533 174.034C118.911 178.309 121.215 182.614 124.103 186.583C125.168 188.728 126.393 190.77 128.012 192.55C127.94 192.871 128.085 193.061 128.392 193.134C130.2 196.884 133.147 199.831 135.437 203.246C135.991 204.077 136.574 204.807 136.618 205.843C136.064 207.973 135.51 210.118 134.941 212.248C134.605 213.518 133.949 214.7 134.051 216.057C133.672 216.144 133.438 216.465 132.957 215.867C130.113 212.336 127.152 208.892 124.22 205.434C123.535 204.573 122.834 203.713 122.149 202.852C121.143 201.582 120.151 200.298 119.144 199.029L115.337 194.112C115.25 193.645 114.943 193.353 114.579 193.105C111.443 188.859 108.307 184.613 105.171 180.367C104.471 178.966 103.683 177.638 102.633 176.471C102.05 175.654 101.481 174.837 100.897 174.02C99.4678 171.846 98.053 169.672 96.6236 167.497C95.0483 165.542 94.2023 163.091 92.4082 161.296C91.9706 159.852 90.8329 158.83 90.162 157.517C89.5056 156.496 88.8493 155.46 88.1783 154.438C85.5091 150.09 82.8398 145.757 80.1706 141.409C79.383 139.92 78.8579 138.271 77.5743 137.075C77.2534 136.521 76.9325 135.966 76.6117 135.412C75.7657 133.281 74.628 131.312 73.3152 129.444C72.6151 128.16 71.9296 126.876 71.2294 125.577C71.2878 124.468 70.4126 123.87 69.8875 123.082C68.8519 120.966 67.8163 118.851 66.7807 116.75C66.1827 115.436 65.716 114.036 64.7679 112.898C64.5053 111.978 64.199 111.059 63.5427 110.329C62.5654 108.214 61.5881 106.083 60.5963 103.968C59.7941 102.071 59.3419 100.043 58 98.4231Z" fill="#00BE82"/>
<path d="M136.093 399H134.824C133.964 397.876 132.695 397.41 131.484 396.841C130.565 395.775 129.398 395.09 128.056 394.696C126.612 393.616 124.322 393.149 124.964 390.523C124.687 388.392 124.41 386.247 124.147 384.117C124.439 381.928 123.841 379.842 123.447 377.726C123.389 375.61 123.33 373.495 123.272 371.379C122.528 369.307 123.199 367.148 122.878 365.046C122.834 362.902 122.776 360.771 122.732 358.626C122.907 356.511 122.849 354.395 122.543 352.294C122.543 350.178 122.528 348.048 122.514 345.932C122.762 343.831 122.732 341.715 122.63 339.614C123.024 337.484 122.762 335.354 122.572 333.223C123.345 331.137 122.82 328.977 122.878 326.847C122.878 324.702 123.666 322.616 123.301 320.441C123.447 318.326 123.593 316.21 123.739 314.109C123.608 311.964 124.541 309.878 124.147 307.703C124.424 305.588 124.687 303.487 124.964 301.371C124.877 299.211 125.839 297.139 125.431 294.965C125.708 292.85 126 290.734 126.277 288.633C126.481 286.488 127.167 284.416 127.123 282.227C127.487 280.126 128.056 278.04 128.085 275.88C128.552 275.734 128.523 275.384 128.435 275.005C128.217 273.093 129.223 271.372 129.267 269.518C129.675 267.388 130.098 265.258 130.507 263.113C130.944 260.997 131.382 258.882 131.819 256.78C132.272 254.665 132.709 252.534 133.161 250.419C133.978 249.82 133.555 248.857 133.789 248.099C134.839 244.67 135.656 241.153 136.56 237.681C137.595 235.667 137.96 233.435 138.602 231.29C139.506 229.247 140.323 227.16 140.819 224.972C142.044 222.987 142.482 220.711 143.284 218.566C144.115 216.436 144.947 214.306 145.778 212.161C147.441 207.929 149.104 203.698 150.752 199.467C151.627 197.322 152.488 195.191 153.363 193.046C153.552 192.346 153.742 191.66 153.917 190.96C155.04 189.749 155.259 188.1 155.959 186.699C156.834 184.744 157.724 182.774 158.599 180.819C159.124 179.798 159.649 178.791 160.174 177.77C160.525 176.34 161.502 175.245 162.217 174.005C162.464 173.772 162.829 173.305 162.946 173.363C164.798 174.253 166.505 175.464 167.788 176.982C168.605 177.945 167.234 179.17 166.986 180.308C166.446 180.892 166.213 181.592 166.14 182.366C165.163 183.358 164.944 184.715 164.404 185.926C163.077 188.217 162.1 190.668 161.298 193.192C160.262 194.754 160.102 196.753 159.226 198.27C157.841 200.692 156.966 203.246 155.945 205.785C154.836 207.798 154.223 210.001 153.523 212.175C153.45 212.292 153.436 212.423 153.45 212.555C153.246 212.642 153.042 212.73 153.115 213.022C153.071 213.299 153.027 213.576 152.984 213.853C152.561 215.254 152.152 216.669 151.729 218.07C150.635 220.23 150.387 222.652 149.716 224.943C149.498 227.058 148.564 229.087 148.87 231.275C148.185 233.362 148.141 235.521 148.024 237.681C147.733 239.796 147.441 241.898 147.164 244.013C146.974 245.72 146.376 247.398 146.741 249.149C146.595 249.558 146.449 249.981 146.303 250.39C146.157 252.52 146.026 254.65 145.88 256.78C145.88 258.896 145.107 260.968 145.501 263.113C144.991 265.229 144.801 267.359 145.034 269.518C144.349 271.59 144.509 273.721 144.597 275.851C143.692 277.938 144.247 280.112 144.188 282.257C143.765 284.343 143.488 286.444 143.751 288.589V294.995C143.722 296.964 143.707 298.934 143.678 300.904C143.547 300.977 143.401 300.977 143.269 300.933C142.569 300.072 141.869 299.226 141.169 298.365C140.192 297.067 139.2 295.782 138.223 294.484C137.61 293.667 137.347 292.572 136.166 291.887C136.108 293.069 136.049 294.017 136.006 294.965C135.495 297.081 134.707 299.138 134.868 301.371C133.789 305.529 133.015 309.746 132.811 314.051C132.067 316.123 131.922 318.282 131.863 320.471C131.732 322.586 131.061 324.658 131.44 326.803C131.353 328.919 131.09 331.035 131.324 333.165V337.002C131.411 337.017 131.499 337.032 131.586 337.046C131.951 335.923 132.315 334.799 132.68 333.676C133.38 333.092 133.234 332.158 133.511 331.414C134.882 327.606 136.983 324.148 138.514 320.427C139.229 319.157 140.265 318.092 140.746 316.677C141.271 316.327 141.461 316.4 141.607 317.086C141.869 318.282 140.892 319.289 141.198 320.456C140.921 322.572 140.629 324.687 140.352 326.789C140.454 331.064 139.185 335.266 139.521 339.556C139.492 341.672 139.448 343.787 139.419 345.903C139.083 348.019 139.127 350.134 139.39 352.25C139.404 353.928 139.39 355.621 139.477 357.299C139.506 357.868 139.083 358.743 139.842 358.947C140.527 359.137 140.804 358.305 141.14 357.795C142.715 355.956 144.276 354.132 145.851 352.294C146.537 351.929 146.653 351.156 147.105 350.616C148.885 349.376 149.964 347.493 151.379 345.932C152.356 345.319 152.882 344.342 153.465 343.408C154.953 342.357 156.032 340.913 157.141 339.512C158.278 338.272 159.416 337.046 160.554 335.806C161.589 335.178 162.056 334.055 162.829 333.194C164.054 332.173 165.294 331.166 166.198 329.824C167.059 329.196 167.818 328.467 168.372 327.547C169.976 326.234 171.187 324.556 172.558 323.039C173.739 322.513 174.6 321.653 175.125 320.471C176.744 319.727 177.692 318.253 178.888 317.042C179.895 316.064 180.901 315.087 181.922 314.094C183.235 313.161 184.227 311.906 185.291 310.724C186.458 309.892 187.756 309.192 188.296 307.733C190.178 307.251 190.79 305.281 192.322 304.377C193.503 303.501 194.714 302.64 195.516 301.356C196.304 300.598 197.456 300.291 198.083 299.314C199.484 298.117 200.869 296.921 202.269 295.724C202.751 295.797 203.466 295.695 203.684 295.972C205.945 298.861 209.052 300.802 211.707 303.253C212.48 303.968 212.553 304.435 211.736 305.267C206.587 310.476 201.424 315.67 196.435 321.025C194.743 322.834 192.832 324.498 191.593 326.73C189.478 328.452 187.917 330.684 186.108 332.683L184.825 334.405C183.395 335.821 182.083 337.323 181.003 339.031C179.895 339.818 179.326 341.059 178.451 342.036C177.59 343.408 176.088 344.298 175.519 345.888C173.141 347.625 172.047 350.397 170.137 352.542C166.811 356.263 164.069 360.523 161.093 364.565C160.204 365.192 159.722 366.112 159.343 367.104C158.03 368.125 157.243 369.555 156.368 370.898C154.005 372.853 152.998 375.815 151 378.12C147.806 381.812 145.253 386.058 142.423 390.056C141.694 391.033 140.965 392.011 140.236 392.974C139.36 394.243 138.193 395.323 137.639 396.797C136.866 397.337 136.399 398.095 136.049 398.942L136.093 399Z" fill="#00BE82"/>
<path d="M428.512 173.524L427.272 174.063C425.026 174.749 422.867 175.639 420.869 176.909C416.449 178.528 412.263 180.659 408.092 182.804C403.76 184.584 399.501 186.524 395.402 188.815C391.012 190.508 386.927 192.842 382.683 194.812C378.57 196.811 374.456 198.81 370.343 200.809C370.051 200.736 369.979 200.94 369.891 201.145L369.92 201.115C365.544 202.983 361.417 205.303 357.172 207.448C352.826 209.359 348.625 211.577 344.468 213.868C344.205 213.926 343.899 213.912 343.68 214.043C341.492 215.385 339.071 216.203 337 217.866C335.512 219.062 333.222 219.179 331.603 220.449C327.402 222.608 323.201 224.782 318.986 226.942C318.14 227.394 317.28 227.817 316.434 228.284C313.064 230.166 309.52 231.757 306.296 233.902C304.444 234.996 302.329 235.623 300.754 237.17C300.418 237.214 300.01 237.112 299.893 237.593C297.603 238.571 295.503 239.855 293.534 241.387C292.09 241.795 290.967 242.802 289.698 243.532L287.174 245.239C282.711 247.603 278.685 250.652 274.455 253.381C273.026 254.344 271.611 255.307 270.182 256.255C269.394 256.707 268.533 257.087 268.008 257.919C263.385 260.72 259.053 263.93 254.823 267.301C253.991 267.87 253.174 268.453 252.343 269.022C251.074 270.029 249.805 271.036 248.551 272.028C246.654 273.035 245.167 274.567 243.475 275.851C243.183 276.114 242.891 276.391 242.614 276.654C240.208 278.156 238.063 279.98 236.021 281.936L235.963 281.95C235.19 282.432 234.402 282.928 233.44 283.526C234.344 284.051 235.03 284.445 235.73 284.839C240.149 288.195 244.583 291.551 249.003 294.907C249.09 294.995 249.192 295.024 249.309 295.009C251.074 296.76 253.233 297.957 255.333 299.226C255.858 299.635 256.369 300.087 256.938 300.437C259.446 301.998 260.424 301.663 261.751 298.832C263.239 297.781 264.274 296.293 265.427 294.922C266.346 294.571 266.827 293.317 268.081 293.696C268.504 294.601 269.511 294.819 270.182 295.418C271.494 296.658 272.895 297.767 274.543 298.526C278.539 301.75 282.857 304.523 287.16 307.309C287.262 307.718 287.612 307.718 287.918 307.747C289.61 309.265 291.696 310.184 293.563 311.453C295.488 312.606 297.472 313.7 299.31 314.911C301.41 316.298 303.554 317.582 305.757 318.793C305.99 319.727 307.463 319.289 307.522 320.398C307.113 320.369 306.705 320.354 306.296 320.325C306.092 319.975 305.786 319.916 305.421 320.018C303.744 319.566 302.066 319.114 300.404 318.676C298.23 317.64 295.955 316.969 293.592 316.531C291.55 315.583 289.42 314.941 287.203 314.532C286.707 314.386 286.416 313.642 285.745 314.021C284.213 313.161 282.463 312.985 280.844 312.402C279.298 312.183 278.014 310.913 275.943 311.191C277.781 312.154 279.269 312.927 280.771 313.715C281.092 314.182 281.471 314.561 282.113 314.415C283.805 315.408 285.511 316.385 287.203 317.377C289.304 318.428 291.229 319.843 293.548 320.412C293.694 320.777 294.03 320.835 294.35 320.923C296.261 322.032 298.201 323.068 300.331 323.724C302.096 324.76 303.933 325.65 305.888 326.278C306.719 326.716 307.565 327.139 308.397 327.577C309.899 327.737 311.008 329.109 312.612 328.992C314.61 330.188 316.755 330.991 319.001 331.56C323.099 333.501 327.446 334.77 331.778 336.054L338.108 338.17C339.888 338.622 341.682 339.031 343.447 339.527C344.118 339.716 344.803 339.848 345.212 339.249C345.299 339.133 344.789 338.286 344.103 338.009C342.09 337.148 340.15 336.127 338.181 335.164C334.068 333.063 329.969 330.976 325.856 328.875C324.398 328.102 323.201 326.818 321.437 326.701C321.247 326.365 321.043 326.015 320.678 325.344C322.414 325.84 323.887 326.263 325.375 326.686C326.119 326.759 326.688 327.431 327.49 327.256C328.919 327.577 330.159 328.598 331.734 328.35C333.747 329.327 335.92 329.751 338.079 330.261C340.165 330.932 342.251 331.633 344.468 331.75C346.087 332.567 347.954 332.435 349.602 333.077C351.469 333.238 353.336 333.398 355.203 333.573C356.428 333.69 356.676 333.165 356.297 332.071C355.699 330.32 355.159 328.554 354.605 326.803C353.803 324.498 353.001 322.207 352.198 319.902C351.877 318.953 351.557 317.99 351.236 317.042C350.813 316.035 350.404 315.043 349.981 314.036C349.106 311.701 348.231 309.367 347.356 307.032C345.766 302.961 344.351 298.832 342.353 294.936C340.778 290.573 338.24 286.634 336.81 282.227C335.818 280.097 334.826 277.967 333.835 275.836C333.397 274.655 333.135 273.4 332.245 272.422C332.303 271.226 331.355 270.467 330.932 269.475C329.969 267.33 328.992 265.2 328.029 263.055C327.286 261.523 326.542 259.976 325.798 258.444C325.637 257.816 325.521 257.189 325.01 256.722C324.266 254.46 323.056 252.432 321.933 250.36C321.087 248.536 320.255 246.698 319.409 244.874C319.292 244.334 319.132 243.824 318.68 243.473C318.519 242.087 315.967 240.482 319.044 239.373C320.328 239.373 321.349 238.658 322.428 238.104C323.479 238.002 324.485 237.754 325.36 237.126C327.534 236.543 329.517 235.39 331.763 235.04C333.047 235.434 332.697 236.922 333.514 237.637C334.345 239.344 335.016 241.153 336.037 242.744C337.598 245.166 338.094 248.084 339.815 250.39C340.588 252.607 341.405 254.825 342.717 256.795C342.849 257.919 343.286 258.911 344.074 259.728C344.395 260.983 344.701 262.238 345.547 263.273C346.291 265.418 347.035 267.563 348.231 269.518C348.873 271.401 349.237 273.414 350.74 274.903C350.244 275.311 350.711 275.574 350.871 275.88C351.557 278.069 352.344 280.199 353.336 282.271C354.94 286.371 356.53 290.471 358.135 294.571C358.981 296.818 359.827 299.08 360.673 301.327C361.533 303.151 361.767 305.252 363.094 306.886C363.138 307.295 363.182 307.718 363.24 308.127C364.057 310.111 364.874 312.11 365.676 314.094C366.245 316.283 366.828 318.457 367.98 320.427C368.432 321.871 368.797 323.36 369.556 324.702C369.876 325.402 369.789 326.249 370.358 326.847C370.927 329.036 371.671 331.166 372.619 333.238C373.1 335.485 373.975 337.571 374.967 339.629C375.142 340.504 375.259 341.409 375.842 342.153C376.134 343.481 376.499 344.779 377.213 345.947C377.665 348.369 378.686 350.601 379.649 352.848C379.824 353.578 379.926 354.337 380.174 355.037C381.122 357.809 382.756 360.363 382.712 363.427C380.553 363.733 378.482 362.654 376.309 363.004C374.281 362.187 372.035 362.42 369.979 361.749C367.834 361.326 365.705 360.917 363.561 360.494C361.46 360.056 359.345 359.633 357.245 359.195C355.568 358.553 353.701 358.583 352.067 358.057C349.573 357.269 347.122 356.438 344.512 356.088C342.455 355.197 340.325 354.541 338.137 354.074C336.139 353.374 334.141 352.673 332.157 351.973C331.749 351.944 331.326 351.914 330.917 351.885C329.211 350.82 327.213 350.543 325.389 349.828C323.304 349.011 321.232 348.135 319.044 347.625C318.899 347.493 318.767 347.289 318.592 347.245C316.507 346.633 314.289 346.049 312.452 345.188C310.439 344.254 308.484 343.174 306.34 342.503C304.211 341.555 302.081 340.606 299.966 339.643C299.674 339.497 299.383 339.337 299.091 339.191C297.428 338.447 295.765 337.703 294.103 336.959C291.798 335.879 289.493 334.785 287.203 333.705C286.503 333.384 285.803 333.063 285.103 332.742C283.834 331.779 282.39 331.122 280.888 330.597C278.758 329.488 276.614 328.379 274.484 327.27C274.164 326.832 273.711 326.584 273.186 326.497C271.494 325.621 269.802 324.746 268.125 323.87C266.112 322.426 263.953 321.229 261.736 320.135C261.605 320.091 261.474 320.062 261.343 320.033C259.578 318.442 257.448 317.421 255.377 316.327C254.181 315.495 253.131 314.43 251.643 314.094C251.03 313.088 250.009 312.606 249.017 312.095C247.048 310.782 245.094 309.469 243.125 308.17C243.008 307.791 242.731 307.703 242.366 307.733C240.499 306.463 238.647 305.179 236.78 303.91C235.263 303.093 234.184 301.561 232.36 301.298C231.981 300.116 230.683 300.014 229.939 299.27C227.853 297.796 225.782 296.308 223.696 294.834C223.477 294.703 223.244 294.571 223.025 294.44C221.1 293.054 219.175 291.653 217.264 290.267C216.126 289.742 215.499 288.516 214.259 288.137C213.136 287.276 212.027 286.43 210.904 285.569C208.381 283.336 205.391 281.702 202.897 279.397C201.482 278.083 200.067 276.566 198.112 275.909C196.377 273.619 193.766 272.32 191.738 270.379C191.52 269.956 191.184 269.679 190.732 269.533C189.098 268.118 187.479 266.702 185.846 265.272C185.189 264.339 184.256 263.74 183.293 263.171C182.214 261.464 180.361 260.545 179.02 259.1C178.101 258.429 177.634 257.291 176.569 256.78C175.402 255.351 174.075 254.081 172.645 252.943C171.975 251.965 171.129 251.148 170.21 250.419C168.911 249.062 167.613 247.69 166.315 246.333C165.79 245.429 165.105 244.684 164.273 244.042C162.844 242.394 161.4 240.745 159.97 239.096C159.824 238.366 159.343 237.943 158.672 237.695C159.095 235.58 159.518 233.464 159.927 231.334C160.335 231.158 160.335 230.823 160.262 230.458C160.35 229.831 160.495 229.189 161.239 229.933C161.837 230.531 162.479 231.027 163.267 231.348C164.084 232.413 165.207 233.128 166.257 233.902C170.297 237.52 174.41 241.037 178.786 244.247C180.814 246.246 182.972 248.099 185.35 249.675L186.633 250.886C188.369 252.14 189.784 253.804 191.724 254.767C192.497 255.847 193.708 256.43 194.699 257.247C195.677 257.977 196.493 258.911 197.646 259.363C201.803 262.807 206.266 265.827 210.802 268.745C211.517 269.154 212.013 269.971 212.946 270C214.201 271.196 215.776 271.941 217.205 272.889C219.291 274.1 221.538 275.107 223.419 276.566C225.476 278.171 226.876 277.544 228.305 275.924C229.006 275.355 229.691 274.8 230.391 274.231C232.317 272.685 234.227 271.124 236.153 269.577C236.474 269.606 236.692 269.475 236.78 269.154C240.878 266.06 244.977 262.967 249.09 259.874C250.52 258.867 251.949 257.875 253.379 256.868C254.05 256.386 254.706 255.905 255.377 255.423C259.636 252.505 263.895 249.587 268.14 246.654L272.078 244.086C272.997 243.678 273.901 243.269 274.499 242.408C279.006 239.607 283.499 236.791 288.006 233.989C289.216 233.333 290.587 232.909 291.477 231.771C292.381 231.684 292.965 231.056 293.621 230.531C295.94 229.656 297.88 228.138 299.995 226.898C300.71 226.416 301.643 226.285 302.125 225.468C303.977 225.147 305.202 223.644 306.865 222.929C311.212 220.259 315.558 217.574 319.905 214.904C321.203 214.437 322.21 213.503 323.333 212.759C324.047 212.336 324.762 211.913 325.491 211.504C327.854 210.001 330.217 208.513 332.507 206.908C334.389 205.58 336.693 204.705 338.692 203.406C340.515 201.932 342.849 201.203 344.541 199.525C346.904 198.664 348.873 197.132 350.915 195.731C352.548 195.221 353.876 194.17 355.232 193.207C355.684 193.134 356.166 193.061 356.239 192.404C354.445 192.011 352.607 192.682 350.9 191.952C348.771 191.792 346.627 191.646 344.497 191.485C342.382 191.208 340.282 190.945 338.167 190.668L331.763 190.216C329.678 189.72 327.606 189.194 325.433 189.37C323.333 188.83 321.232 188.319 319.03 188.523C316.959 187.925 314.829 187.765 312.7 187.677C310.687 187.312 308.674 186.962 306.676 186.597C306.676 186.48 306.617 186.408 306.515 186.364C305.202 184.394 303.875 182.41 302.562 180.44C308.061 180.265 313.546 180.104 319.044 179.929C321.189 179.9 323.318 179.871 325.462 179.856C327.723 179.871 330.013 180.396 332.245 179.608C334.083 179.564 335.92 179.521 337.758 179.491C340.004 179.36 342.265 179.214 344.512 179.083C346.641 178.937 348.771 178.806 350.915 178.66C353.001 178.076 355.145 178.412 357.245 178.237C359.331 177.624 361.577 178.134 363.634 177.376C365.778 177.711 367.834 176.734 369.964 176.952C372.094 176.675 374.223 176.383 376.353 176.106C378.526 176.281 380.626 175.814 382.741 175.377C386.636 175.45 390.428 174.224 394.352 174.443C394.716 174.457 395.096 174.122 395.46 173.947C397.604 173.947 399.748 173.888 401.79 173.115C403.949 173.363 406.079 173.173 408.194 172.692L414.524 172.254C416.654 171.977 418.798 171.7 420.927 171.422C423.042 171.277 425.157 171.145 427.258 170.999C429.373 170.576 431.517 170.664 433.661 170.547C434.098 170.737 434.128 170.926 433.661 171.116C431.925 171.875 430.029 172.298 428.541 173.567L428.512 173.524Z" fill="#00BE82"/>
<path d="M223.025 185.503C223.871 186.101 224.717 186.685 225.563 187.283C226.949 188.582 228.32 189.88 229.429 191.427C229.851 191.996 230.274 192.55 230.697 193.119C231.821 195.25 232.944 197.38 234.067 199.51C234.548 200.678 234.898 201.918 235.759 202.895C236.153 204.121 236.678 205.288 237.495 206.295C238.574 208.323 240.208 209.826 242.147 210.994C242.731 211.548 243.3 212.102 243.883 212.642C245.327 214.379 246.509 216.232 246.509 218.596C245.969 220.565 244.685 221.937 243.139 223.206C240.601 225.293 237.801 227.219 236.984 230.735C236.284 233.084 236.546 235.404 237.232 237.71C237.203 238.323 237.028 238.979 237.188 239.534C237.597 240.92 236.503 239.913 236.24 240.19C233.556 238.308 230.391 237.17 227.985 234.85C226.788 233.683 225.213 232.895 224.411 231.334C225.301 229.291 225.519 227.088 226.045 224.957C226.54 222.739 227.474 220.58 227.226 217.939C225.592 219.179 224.382 220.361 223.492 221.864C222.529 222.9 221.567 223.921 220.619 224.957C220.341 224.957 220.05 224.943 219.773 224.928C218.431 222.973 219.014 220.726 218.795 218.596C219.641 216.465 220.502 214.335 221.348 212.205C221.946 209.972 222.909 207.813 222.661 205.42C222.734 203.421 223.244 201.378 222.179 199.452C222.456 197.205 221.785 195.133 221.012 193.076C220.546 189.515 218.46 186.597 217.147 183.358C219.379 183.329 220.998 184.963 223.011 185.503H223.025Z" fill="#00BE82"/>
<path d="M274.441 196.417C276.629 196.782 278.758 197.365 280.8 198.241C281.719 198.533 282.361 199.394 283.382 199.467C284.49 200.605 285.584 201.743 286.693 202.895C287.305 203.771 286.97 204.982 287.699 205.828C287.962 209.053 286.532 211.46 284.242 213.62C281.136 216.553 277.591 218.829 274.032 221.12C269.934 223.119 265.835 225.118 261.751 227.117C259.621 227.963 257.492 228.824 255.348 229.67C254.487 230.05 253.627 230.429 252.781 230.808C252.503 230.852 252.226 230.896 251.949 230.925C251.789 231.042 251.643 231.158 251.482 231.275C250.549 231.129 249.805 231.757 248.959 231.946C246.859 232.486 244.758 233.026 242.658 233.566C241.637 233.099 241.827 232.121 241.71 231.275C241.929 230.633 241.301 229.583 242.6 229.495C244.787 228.97 246.975 228.415 249.017 227.379C250.68 226.956 252.285 226.416 253.7 225.395C254.531 225.395 255.231 225.074 255.858 224.534C257.813 223.498 259.767 222.477 261.722 221.441C263.107 220.799 264.522 220.201 265.572 219.004C266.564 218.654 267.483 218.187 268.14 217.326C270.517 216.071 272.515 214.364 274.105 212.205C274.251 212.088 274.397 211.971 274.543 211.854C276.337 209.622 276.322 208.105 274.528 206.572C273.916 206.076 273.245 205.726 272.413 205.77C271.276 204.471 269.613 204.501 268.125 204.063C266.039 203.435 263.953 202.837 261.751 202.895C259.651 202.399 257.55 201.816 255.362 202.035C251.424 201.349 247.471 201.086 243.489 201.539C243.227 201.509 242.95 201.495 242.687 201.466C242.352 200.794 242.016 200.123 241.681 199.452C241.301 198.226 240.937 197.001 240.543 195.687C241.287 195.629 241.972 195.585 242.658 195.542C244.744 194.929 246.888 195.308 248.988 195.118C251.147 195.439 253.247 194.695 255.377 194.71C257.492 194.71 259.607 194.71 261.722 194.71C263.808 195.294 265.952 195.177 268.081 195.221C270.138 195.936 272.413 195.527 274.455 196.373L274.441 196.417Z" fill="#00BE82"/>
<path d="M121.624 164.711C122.528 165.79 123.462 166.812 124.614 167.629C125.752 168.767 126.889 169.905 128.012 171.029C128.858 172.152 129.85 173.13 130.959 173.991C131.951 175.275 133.088 176.427 134.357 177.434C135.174 178.572 136.137 179.564 137.245 180.411C138.412 181.665 139.287 183.197 140.717 184.219C140.936 184.861 141.811 185.036 141.884 185.868C139.273 186.408 137.056 188.027 134.401 188.363C134.255 187.487 133.657 186.889 133.147 186.247C130.609 182.147 128.071 178.061 125.518 173.961C124.701 171.919 123.491 170.138 122.091 168.46C121.959 168.169 121.843 167.877 121.711 167.585C121.303 166.009 119.684 164.988 119.509 163.178C120.574 163.354 120.851 164.36 121.624 164.696V164.711Z" fill="#00BE82"/>
<path d="M346.554 314.124C346.874 314.941 347.195 315.772 347.502 316.589C347.4 316.692 347.283 316.779 347.181 316.881C346.51 316.21 345.839 315.553 345.182 314.882C344.935 314.62 344.687 314.357 344.424 314.094C342.236 310.841 339.406 308.112 337.014 305.033C335.585 303.195 333.747 301.648 332.361 299.839C330.888 297.884 329.386 296.06 327.534 294.484C326.994 293.769 326.717 292.835 325.842 292.397C324.733 291.04 323.522 289.8 322.151 288.72C321.291 287.524 320.153 286.59 319.001 285.7C317.571 284.445 317.557 284.401 318.33 283.905C320.518 282.505 322.881 281.469 325.346 280.608C325.71 281.206 325.9 281.95 326.644 282.242C327.971 284.343 329.386 286.371 331.005 288.268C331.136 288.516 331.268 288.764 331.399 288.998L335.541 295.432C336.256 296.556 336.971 297.679 337.671 298.803C338.123 299.722 338.633 300.612 339.363 301.342C340.209 302.888 341.011 304.464 341.886 305.996C343.418 308.71 344.993 311.395 346.539 314.094L346.554 314.124Z" fill="#00BE82"/>
<path d="M167.453 224.928C167.482 222.272 168.809 220.317 170.72 218.639C171.479 218.041 172.252 217.457 173.01 216.859C177.094 213.999 181.572 211.898 186.137 209.958C187.99 209.257 189.857 208.557 191.709 207.856C193.139 207.346 194.554 206.821 195.983 206.31C196.26 206.266 196.537 206.222 196.814 206.193C196.975 206.076 197.121 205.96 197.281 205.843C197.5 205.799 197.733 205.741 197.952 205.697C200.227 205.42 202.313 204.457 204.472 203.771C206.616 203.304 208.775 202.881 210.817 202.078C211.707 201.976 212.567 201.889 213.442 201.641C214.026 201.48 215.382 201.218 215.353 202.005C215.309 203.085 216.622 204.428 215.003 205.347C213.53 205.536 212.057 205.785 210.788 206.631C208.512 206.908 206.441 207.798 204.384 208.732C199.994 210.206 195.735 212.015 191.68 214.247C187.567 216.042 183.614 218.099 180.157 221.032C178.786 222.2 179.457 222.987 180.522 223.629C181.98 224.519 183.672 224.884 185.321 225.293C185.481 225.293 185.642 225.293 185.802 225.293C187.669 226.168 189.682 226.3 191.68 226.518C193.708 227.452 195.925 227.219 198.069 227.525C200.155 228.08 202.284 228.255 204.428 228.284C206.558 228.284 208.687 228.284 210.831 228.284C211.896 228.094 212.305 228.824 212.45 229.626C212.567 230.312 212.596 230.983 213.296 231.348C213.311 231.625 213.296 231.917 213.369 232.18C213.661 233.362 215.003 234.602 214.463 235.521C213.778 236.688 212.042 235.682 210.802 236.046C208.687 235.901 206.572 235.769 204.472 235.623C202.357 235.448 200.227 235.273 198.112 235.113C196.056 234.296 193.81 235.04 191.738 234.354C189.623 234.048 187.494 233.726 185.379 233.42C183.41 232.997 181.441 232.574 179.457 232.151C178.436 231.377 177.123 231.421 176 230.94C174.877 230.516 173.754 230.108 172.631 229.685C170.443 228.62 168.591 227.175 167.482 224.943L167.453 224.928Z" fill="#00BE82"/>
<path d="M331.501 314.284C331.588 314.517 331.676 314.751 331.749 314.984C330.465 315.276 329.692 313.817 328.438 314.036C327.854 312.679 326.454 312.606 325.36 312.037C323.377 310.622 321.218 309.556 319.015 308.535C318.432 308.156 317.863 307.762 317.28 307.382C315.675 306.77 314.406 305.442 312.656 305.135C310.643 303.808 308.441 302.859 306.267 301.852C305.611 301.444 304.954 301.035 304.167 300.948C302.956 299.839 301.454 299.299 299.908 298.876C297.793 298 295.663 297.11 293.548 296.235C291.856 295.607 290.208 294.834 288.458 294.44C287.656 294.265 287.481 293.856 287.189 293.331C288.881 292.178 290.091 290.559 291.433 289.056C292.513 288.429 292.819 287.028 293.986 286.517C295.124 286.634 295.94 287.422 296.903 287.918C300.17 289.625 302.912 292.193 306.282 293.725C306.705 294.644 307.726 294.819 308.382 295.447C309.797 296.439 311.226 297.431 312.641 298.423C314.727 300.612 317.323 302.188 319.613 304.143C323.566 307.528 327.49 310.957 331.501 314.269V314.299V314.284Z" fill="#00BE82"/>
<path d="M173.535 282.227C172.208 286.473 170.895 290.705 169.568 294.951C169.203 295.826 168.839 296.687 168.328 297.898C167.686 296.746 168.065 295.826 167.861 294.995C167.89 292.879 167.934 290.763 167.963 288.633C168.795 286.546 168.168 284.372 168.284 282.257C168.211 281.045 168.532 280.199 169.991 280.535C170.939 280.754 171.683 279.995 172.602 280.068C174.921 279.937 173.302 281.483 173.535 282.227Z" fill="#00BE82"/>
</svg>
