<svg width="491" height="491" viewBox="0 0 491 491" fill="none" xmlns="http://www.w3.org/2000/svg">
<g opacity="0.995">
<path fill-rule="evenodd" clip-rule="evenodd" d="M185.928 94.1289C196.456 93.5288 206.688 95.0236 216.626 98.6132C235.976 106.802 247.091 121.641 249.97 143.128C251.007 151.76 250.231 160.218 247.641 168.503C244.944 177.501 241.063 185.886 235.997 193.659C235.445 194.437 234.845 195.167 234.197 195.846C227.931 189.774 221.686 183.649 215.461 177.472C213.172 174.781 210.985 172.01 208.898 169.159C208.757 168.795 208.757 168.43 208.898 168.065C213.529 158.866 214.588 149.241 212.074 139.191C208.51 127.782 200.923 122.423 189.316 123.113C181.954 124.451 176.485 128.498 172.908 135.253C170.556 140.14 169.497 145.317 169.733 150.784C167.459 156.536 166.118 162.515 165.71 168.722C165.439 171.932 165.333 175.141 165.393 178.347C160.414 175.463 156.286 171.598 153.008 166.753C149.857 159.512 146.822 152.221 143.904 144.878C141.448 152.565 139.119 160.294 136.918 168.065C136.742 169.081 136.601 170.102 136.495 171.128C136.42 174.057 136.384 176.974 136.389 179.878C133.617 175.925 131.676 171.55 130.567 166.753C125.379 141.333 132.754 120.88 152.69 105.394C162.75 98.4388 173.83 94.6837 185.928 94.1289Z" fill="#EB2026"/>
<path fill-rule="evenodd" clip-rule="evenodd" d="M178.942 149.472C178.754 155.891 180.201 161.943 183.282 167.628C185.692 171.877 188.514 175.815 191.75 179.44C198.44 186.28 205.32 192.879 212.392 199.237C214.897 201.825 217.402 204.414 219.907 207.002C221.834 209.284 223.598 211.691 225.2 214.221C225.226 213.856 225.155 213.492 224.988 213.127C222.779 208.633 220.098 204.476 216.943 200.659C211.459 194.7 205.708 189.049 199.689 183.706C197.382 181.468 195.229 179.098 193.232 176.597C191.551 169.979 191.762 163.416 193.867 156.909C194.443 155.354 195.184 153.896 196.09 152.534C196.36 160.554 198.795 167.773 203.394 174.19C207.548 179.797 212.17 185.011 217.261 189.831C222.152 194.301 226.916 198.931 231.551 203.721C235.144 207.788 238.108 212.309 240.443 217.284C242.804 222.655 243.615 228.27 242.877 234.127C246.91 235.305 249.027 238.076 249.229 242.439C253.292 240.574 256.327 237.585 258.332 233.471C259.586 244.549 256.799 254.392 249.97 263.002C247.799 265.502 245.294 267.544 242.454 269.127C242.383 269.054 242.313 268.981 242.242 268.908C244.423 259.597 240.965 254.019 231.869 252.174C230.398 251.873 228.916 251.655 227.423 251.517C224.95 251.481 222.48 251.372 220.013 251.189C221.495 248.823 222.588 246.271 223.295 243.533C223.991 240.631 222.967 238.772 220.225 237.955C216.526 237.12 212.786 236.829 209.004 237.08C201.806 237.354 194.749 238.52 187.834 240.58C192.117 240.789 196.351 241.373 200.536 242.33C200.943 242.409 201.296 242.591 201.595 242.877C199.372 246.886 198.031 251.188 197.572 255.783C197.943 260.167 199.919 261.224 203.5 258.955C204.1 258.335 204.7 257.715 205.299 257.096C204.63 259.824 204.065 262.595 203.606 265.408C202.416 271.324 204.709 273.84 210.486 272.955C211.184 272.855 211.855 272.672 212.497 272.408C212.449 273.459 212.096 274.407 211.439 275.252C208.25 279.782 204.122 283.1 199.054 285.205C194.735 287.195 190.219 288.216 185.505 288.267C189.841 285.756 193.087 282.183 195.243 277.548C195.208 277.439 195.173 277.33 195.137 277.22C191.47 278.564 187.695 279.002 183.811 278.533C187.711 275.697 190.146 271.832 191.115 266.939C192.527 258.041 189.21 251.916 181.165 248.564C175.421 246.685 169.74 246.867 164.122 249.111C162.995 249.62 161.937 250.24 160.947 250.971C160.876 250.861 160.806 250.752 160.735 250.643C164.399 241.388 170.609 234.607 179.365 230.299C174.825 228.816 170.238 227.577 165.604 226.58C169.449 223.72 173.683 221.678 178.307 220.455C182.933 218.99 187.661 218.115 192.491 217.83C181.067 216.137 170.27 218.106 160.1 223.737C158.474 224.722 156.922 225.816 155.442 227.018C154.243 227.966 153.184 229.059 152.267 230.299C155.208 230.69 158.137 231.164 161.053 231.721C162.773 232.01 164.431 232.484 166.028 233.143C159.444 234.721 153.234 237.273 147.398 240.799C140.896 244.563 134.898 249.048 129.402 254.252C129.332 254.142 129.261 254.033 129.191 253.924C130.338 249.092 131.184 244.207 131.731 239.268C131.148 232.831 127.761 229.039 121.569 227.893C119.901 227.697 118.243 227.514 116.594 227.346C112.649 227.582 108.732 228.056 104.844 228.768C107.546 226.17 110.439 223.837 113.524 221.768C120.053 217.921 126.616 214.129 133.213 210.393C134.976 209.279 136.564 207.93 137.977 206.346C138.922 204.61 138.922 202.86 137.977 201.096C134.695 195.372 130.285 190.815 124.745 187.425C132.181 186.88 139.52 187.5 146.762 189.284C146.904 189.211 147.045 189.138 147.186 189.065C143.557 182.394 142.604 175.322 144.328 167.847C144.404 167.426 144.581 167.062 144.857 166.753C146.992 171.558 150.026 175.678 153.961 179.112C156.23 180.947 158.559 182.697 160.947 184.362C166.346 187.698 171.78 190.98 177.248 194.206C181.001 196.641 184.424 199.521 187.516 202.846C188.222 203.867 188.927 204.888 189.633 205.909C189.367 204.285 188.803 202.754 187.939 201.315C184.482 195.7 180.036 191.107 174.602 187.534C173.275 183.271 172.604 178.896 172.591 174.409C172.656 167.66 173.75 161.098 175.872 154.722C176.531 152.704 177.554 150.954 178.942 149.472ZM210.91 216.19C210.922 216.071 210.993 215.998 211.121 215.971C217.53 218.728 221.905 223.467 224.247 230.19C219.021 229.857 215.316 227.232 213.133 222.315C212.281 220.292 211.54 218.25 210.91 216.19Z" fill="#EB2026"/>
<path fill-rule="evenodd" clip-rule="evenodd" d="M397 226.252C397 226.325 397 226.398 397 226.471C382.64 224.18 368.879 226.258 355.717 232.705C354.201 233.654 352.719 234.639 351.271 235.658C344.025 230.814 336.119 229.173 327.56 230.737C318.859 232.295 311.625 236.488 305.86 243.314C299.996 250.547 294.703 258.203 289.982 266.283C286.373 272.72 282.986 279.282 279.82 285.97C275.341 282.218 270.86 278.463 266.377 274.705C264.205 273.327 261.947 272.124 259.602 271.095C270.078 256.077 282.781 243.5 297.709 233.361C306.521 227.531 316.048 223.447 326.29 221.112C328.949 220.568 331.629 220.203 334.335 220.018C325.606 219.459 317.138 220.771 308.93 223.955C293.92 229.498 281.183 238.431 270.717 250.752C271.536 246.61 272.948 242.673 274.951 238.94C281.179 227.179 289.471 217.226 299.827 209.081C301.344 208.041 302.896 207.057 304.484 206.127C304.555 206.164 304.625 206.2 304.696 206.237C302.306 209.147 300.436 212.392 299.086 215.971C298.727 218.37 299.68 219.209 301.944 218.487C303.198 217.845 304.398 217.116 305.543 216.299C308.788 213.528 312.036 210.758 315.281 207.987C319.513 204.496 324.171 201.725 329.254 199.674C331.729 198.784 334.269 198.346 336.875 198.362C333.181 200.211 329.899 202.654 327.031 205.69C325.197 208.941 326.08 210.436 329.677 210.174C332.863 209.187 336.039 208.167 339.204 207.112C350.655 203.928 361.876 204.657 372.865 209.299C382.056 213.276 390.1 218.927 397 226.252Z" fill="#EB2026"/>
<path fill-rule="evenodd" clip-rule="evenodd" d="M122.839 236.533C123.348 236.51 123.736 236.729 124.004 237.19C124.406 237.818 124.582 238.511 124.533 239.268C123.804 244.276 122.992 249.271 122.098 254.252C121.581 261.251 121.158 268.251 120.828 275.252C126.212 268.959 131.752 262.797 137.447 256.767C142.808 252.292 148.595 248.464 154.807 245.283C154.878 245.356 154.948 245.429 155.019 245.502C154.378 246.9 153.919 248.358 153.643 249.877C152.713 255.423 151.76 260.964 150.785 266.502C150.855 266.72 150.926 266.939 150.996 267.158C156.286 263.188 161.72 259.433 167.298 255.892C171.091 254.411 174.902 254.338 178.73 255.674C170.151 264.608 163.906 275.072 159.994 287.064C156.328 298.575 156.469 310.023 160.417 321.407C165.5 334.606 174.851 342.153 188.469 344.048C193.693 344.472 198.703 343.597 203.5 341.423C209.296 338.721 214.518 335.149 219.166 330.704C225.516 324.476 231.02 317.586 235.679 310.032C244.257 316.964 252.619 324.183 260.767 331.688C260.946 332.019 261.123 332.347 261.296 332.673C254.401 347.381 245.085 360.213 233.35 371.172C214.403 387.206 192.738 393.403 168.356 389.766C155.431 387.388 143.999 381.847 134.06 373.141C130.102 369.273 126.538 365.08 123.369 360.563C121.431 358.319 119.879 358.537 118.711 361.219C118.5 365.45 119.241 369.497 120.934 373.36C120.722 373.506 120.511 373.506 120.299 373.36C105.532 358.082 98.1929 339.563 98.2815 317.798C98.4759 305.619 100.487 293.77 104.315 282.251C104.85 280.79 104.674 279.441 103.786 278.205C102.704 277.962 101.716 278.18 100.822 278.861C98.599 280.574 96.6584 282.58 95 284.876C95.8534 275.165 98.8173 266.196 103.892 257.97C109.062 249.748 115.378 242.602 122.839 236.533Z" fill="#EB2026"/>
<path fill-rule="evenodd" clip-rule="evenodd" d="M336.664 396C334.405 396 332.148 396 329.889 396C311.458 393.74 299.566 383.387 294.216 364.938C293.679 362.554 293.255 360.147 292.946 357.719C288.188 363.306 286.424 369.796 287.653 377.188C288.384 381.541 290.184 385.334 293.052 388.563C292.946 388.635 292.84 388.709 292.734 388.781C281.175 384.785 274.188 376.619 271.775 364.282C271.566 362.392 271.46 360.497 271.458 358.594C271.808 352.983 271.985 347.368 271.987 341.751C271.558 334.849 268.841 329.125 263.836 324.579C254.221 316.103 244.483 307.789 234.621 299.642C227.924 293.549 224.713 285.856 224.988 276.564C224.333 273.133 222.674 270.326 220.013 268.142C216.75 265.646 213.609 262.985 210.592 260.158C207.517 256.046 206.599 251.452 207.84 246.377C208.964 242.922 209.458 243.141 209.322 247.033C210.183 250.163 211.983 252.532 214.72 254.142C216.392 255.059 218.157 255.715 220.013 256.111C223.409 256.482 226.796 256.919 230.175 257.424C233.14 258.085 235.293 259.799 236.632 262.564C237.506 265.984 238.353 269.411 239.172 272.845C240.157 275.318 241.957 276.594 244.571 276.673C247.972 276.811 251.359 277.103 254.733 277.548C257.073 278.038 259.26 278.913 261.296 280.173C273.653 290.496 285.932 300.923 298.133 311.454C301.379 314.132 305.083 315.628 309.247 315.939C317.813 314.926 322.365 309.968 322.903 301.064C322.962 299.219 322.68 297.433 322.056 295.704C322.126 295.595 322.198 295.486 322.267 295.376C328.411 299.459 332.258 305.219 333.805 312.657C334.953 318.113 334.741 323.509 333.17 328.845C331.972 332.675 329.821 335.775 326.713 338.141C334.961 339.778 342.723 338.391 350.001 333.985C358.421 327.657 360.432 319.6 356.035 309.814C352.808 304.516 348.257 301.053 342.38 299.423C356.896 298.126 369.069 302.975 378.899 313.97C386.728 324.159 388.703 335.46 384.827 347.876C380.051 359.664 371.758 367.504 359.951 371.391C353.706 373.333 347.355 373.917 340.898 373.141C344.725 376.247 349.029 378.362 353.812 379.485C358.082 380.62 362.386 380.839 366.726 380.141C367.757 379.948 368.746 379.62 369.69 379.156C369.918 379.345 369.954 379.563 369.796 379.813C367.465 383.096 364.607 385.758 361.222 387.797C353.617 392.445 345.43 395.18 336.664 396Z" fill="#EB2026"/>
</g>
</svg>
