<svg width="491" height="491" viewBox="0 0 491 491" fill="none" xmlns="http://www.w3.org/2000/svg">
<path d="M352.05 131.11C355.45 136.78 358.92 142.4 362.89 147.7C363.91 149.06 365 150.36 366.32 151.52C365.91 150.86 365.51 150.19 365.1 149.53C365.2 149.46 365.31 149.39 365.41 149.32C367.48 151.96 369.67 154.53 371.58 157.28C372.4 158.46 372.91 160.01 373.07 161.45C373.25 163.04 373.95 163.72 375.55 163.96C376.34 159.2 376.66 154.41 376.64 149.48C377.05 149.41 377.4 149.34 377.87 149.26C378.05 148.79 378.25 148.23 378.5 147.57C379.99 147.81 381.4 148.23 382.69 148.95C383.64 149.48 384 150.39 383.97 151.49C383.96 152.14 384.13 152.79 384.14 153.44C384.14 154.48 384.23 155.55 384.03 156.56C383.29 160.26 382.44 163.94 381.65 167.62C381.46 168.5 381.42 169.28 382.08 170.11C382.77 170.99 382.81 172.13 382.74 173.28C382.44 178.1 382.22 182.91 382.46 187.75C383.06 200.03 385.57 211.92 389.26 223.72H388.56C391.06 232.58 395.21 240.67 399.09 248.88C394.79 241.19 390.65 233.42 387.57 225.13C387.46 225.17 387.35 225.21 387.24 225.24C387.52 226.2 387.73 227.19 388.09 228.12C390.49 234.29 393.38 240.24 396.53 246.06C396.78 246.53 397 247.02 397.02 247.62C396.77 247.24 396.49 246.87 396.27 246.47C394.27 242.69 392.27 238.91 390.28 235.12C389.43 233.51 388.61 231.88 387.56 230.3C387.93 231.62 388.13 233.02 388.71 234.24C390.23 237.44 391.96 240.55 393.53 243.74C393.94 244.57 394.12 245.52 394.31 246.44C394.77 248.61 395.25 250.77 395.57 252.96C395.8 254.55 395.82 256.17 395.87 257.78C396.15 265.88 395.02 273.86 393.8 281.83C393.4 284.47 392.72 287.13 392.8 289.76C392.92 294.09 391.67 298.09 390.53 302.12C389.4 306.12 387.95 310.04 386.47 313.93C384.95 317.92 383.23 321.84 381.59 325.79C380.55 328.29 378.37 329.34 375.76 328.59C375.13 328.41 374.53 328.12 373.85 327.85C372.81 329.38 371.48 330.42 369.53 330.56C369.14 330.59 368.74 331.26 368.45 331.71C364.87 337.2 361.32 342.72 357.72 348.2C356.9 349.45 355.95 350.61 355 351.77C354.4 352.5 354.08 353.25 354.28 354.22C354.69 356.19 353.79 357.54 352.15 358.5C351.09 359.11 349.91 359.56 348.99 360.34C347.98 361.19 346.93 361.74 345.7 362.25C342.11 363.74 339.23 366.44 335.73 368.58C337.06 369.08 338.11 369.52 339.19 369.87C341.26 370.54 342.29 372.11 342.79 374.08C342.96 374.74 343.06 375.41 342.3 376.01C341.72 376.47 341.3 377.27 341.08 378C340.79 378.97 340.06 379.13 339.32 379.24C337.9 379.46 336.45 379.53 335.03 379.76C334.36 379.87 333.73 380.27 333.06 380.42C332.09 380.63 331.1 380.85 330.12 380.87C327.56 380.91 325.18 381.59 322.9 382.69C320.85 383.68 318.87 384.82 316.8 385.75C312.8 387.54 308.76 389.25 304.71 390.94C301.28 392.37 297.81 393.71 294.4 395.26C295.31 395.01 296.21 394.74 297.13 394.53C298.09 394.31 299.07 394.15 300.04 393.95C300.58 393.84 301.13 393.76 301.64 393.56C303.3 392.92 304.93 392.21 306.59 391.58C309.48 390.48 312.38 389.43 315.32 388.5C303.1 394.47 290.33 398.88 277.03 401.75C291.41 399.31 305.11 394.82 318.21 388.27C317.92 388.54 317.67 388.87 317.34 389.06C315.14 390.34 313.01 391.83 310.68 392.82C298.73 397.89 286.44 401.88 273.54 403.78C268.25 404.56 262.96 405.02 257.62 405.21C254.4 405.33 251.18 405.46 247.96 405.72C250.2 406.2 252.46 406.18 254.73 406.14C256.11 406.11 257.5 406.2 258.88 406.18C259.87 406.17 260.86 406.07 261.86 406.07C259.03 406.89 256.12 407.26 253.21 407.57C245.36 408.41 237.57 407.82 229.82 406.43C228.35 406.17 226.86 405.94 225.37 405.8C222.85 405.56 222.58 405.38 221.95 403C221.89 402.79 221.82 402.59 221.78 402.47C218.96 401.77 216.24 401.06 213.49 400.43C207.91 399.14 202.78 396.81 197.92 393.82C195.32 392.22 192.61 390.82 190 389.24C185.25 386.36 180.48 383.52 175.85 380.47C172.93 378.55 173.04 378.39 171.63 375.23C168.82 378.13 165.75 377.16 163.02 375.41C157.13 371.64 151.41 367.61 145.62 363.68C144.61 362.99 143.62 362.27 142.61 361.59C141.12 360.58 140.08 359.25 139.73 357.47C139.3 355.35 138.94 353.22 138.5 351.1C138.41 350.66 138.2 350.13 137.87 349.85C127.41 341.06 120.07 329.98 114.05 317.88C109.66 309.04 106.39 299.79 103.53 290.37C103.12 289.01 102.99 287.56 102.7 285.94C104.54 286.34 106.18 286.75 107.64 287.61C108.17 287.92 108.58 288.54 108.89 289.11C109.2 289.68 109.53 289.98 110.28 289.86C110.34 289 109.89 288.29 109.6 287.55C107.18 281.4 104.81 275.23 103 268.86C101.21 262.55 99.86 256.15 99.12 249.64C98.69 245.84 98.47 242.02 98.17 238.21C98.09 237.18 98.17 236.19 99.31 235.56C102.53 236.43 105.63 237.91 109.21 238.72C108.79 232.27 108.37 226.1 107.05 219.82C108.14 220.09 108.98 220.29 109.93 220.52C110.29 218.74 110.14 217.04 109.96 215.36C109.05 206.6 106.44 198.32 102.81 190.32C101.4 187.23 99.86 184.23 98.15 181.3C96.86 179.1 95.85 176.75 94.71 174.47C94.61 174.27 94.53 174.06 94.39 173.9C93 172.27 92.84 170.29 92.64 168.14C95.19 168.59 97.44 169.36 98.99 171.44C101.26 174.48 103.84 177.23 106.7 179.71C109.87 182.46 112.59 185.6 114.98 189.03C116.82 191.67 118.56 194.39 120.33 197.08C121.17 198.36 121.99 199.66 123.03 201.26C123.03 200.31 123.03 199.72 123.03 199.14C123.07 196.86 123.01 194.58 123.16 192.31C123.5 187.47 122.97 182.76 121.23 178.23C120.09 175.28 118.9 172.34 117.6 169.47C113.24 159.86 108.86 150.26 105.68 140.17C103.05 131.84 101.25 123.32 100.06 114.67C99.86 113.24 99.63 111.82 99.37 110.4C98.9 107.85 97.84 105.55 96.46 103.36C95.48 101.81 94.6 100.21 93.67 98.63C92.57 96.77 92.1 94.74 92 92.45C92.41 92.53 92.76 92.58 93.1 92.67C96.54 93.6 99.52 95.29 102.14 97.74C105.67 101.03 109.22 104.33 112.96 107.37C117.61 111.15 122.74 114.11 128.77 115.18C131.72 115.7 134.61 115.63 137.51 114.84C140.91 113.9 144.29 112.96 147.66 111.9C150.82 110.91 154.15 110.36 157.53 110.85C157.8 110.89 158.12 110.98 158.35 110.9C159.63 110.44 160.9 109.94 162.41 109.36C162.02 108.87 161.8 108.45 161.46 108.17C157.91 105.24 154.31 102.37 150.78 99.41C149.22 98.1 148.09 96.46 147.71 94.39C147.5 93.25 147.33 92.1 147.16 91.03C147.81 90.19 148.54 90.47 149.21 90.7C151.89 91.61 154.57 92.52 157.22 93.5C160.08 94.56 162.92 95.69 165.77 96.79C166.1 96.92 166.42 97.07 166.91 97.28C166.43 97.38 166.13 97.44 165.83 97.51C165.83 97.59 165.81 97.67 165.8 97.74C168 98.48 170.17 99.29 172.4 99.93C182.07 102.74 191.87 104.99 201.78 106.76C210.17 108.25 218.63 109.18 227.14 109.32C232.57 109.41 238.02 108.94 243.46 108.69C245.24 108.61 247.01 108.44 248.78 108.29C249.48 108.23 250.18 108.13 251.14 108.02C250.72 107.54 250.5 107.25 250.24 107C245.26 102.5 241.14 97.28 237.4 91.74C236.24 90.02 236.09 88.01 235.81 85.96C236.18 85.82 236.5 85.7 236.83 85.58C236.67 84.43 236.52 83.35 236.34 82C237.88 82.54 239.26 82.94 240.54 83.52C241.1 83.77 241.65 84.34 241.91 84.91C243.81 88.99 247.13 91.78 250.51 94.5C253.8 97.15 257.3 99.51 261.08 101.44C265.34 103.62 269.87 104.04 274.54 103.59C276.97 103.36 279.39 102.89 281.82 102.83C284.83 102.76 287.8 103.38 290.65 104.31C297.98 106.71 305.31 109.12 312.55 111.78C317.25 113.51 322.05 114.85 326.82 116.33C329.56 117.18 332.22 118.27 335.12 119.32C335.01 118.48 334.9 117.63 334.8 116.78C333.96 109.74 333.8 102.69 334.78 95.67C335.03 93.89 335.8 92.17 336.45 90.47C336.86 89.4 337.09 89.39 338.26 89.73C338.83 89.89 339.4 90.04 340.08 90.22V84.9C341.7 85.32 343.29 85.56 344.57 86.55C345.41 87.2 345.72 88.16 345.47 89.24C345.27 90.1 345.04 90.96 344.89 91.84C344.58 93.68 344.08 95.45 344.5 97.41C344.84 98.99 344.52 100.71 344.58 102.36C344.73 107.25 345.11 112.1 346.7 116.8C346.59 116.83 346.47 116.86 346.36 116.88C346.04 115.9 345.7 114.92 345.4 113.92C345.09 112.86 344.81 111.79 344.49 110.58C344.13 113.5 347.71 123.01 351.91 130.5C351.66 130.42 351.4 130.34 350.84 130.16C351.51 131.38 352.04 132.36 352.57 133.33L352.75 133.25C352.54 132.53 352.34 131.81 352.13 131.09L352.05 131.11ZM111.22 151.54C111.25 152.01 111.29 152.47 111.32 152.94C111.42 152.93 111.52 152.91 111.62 152.9C111.48 152.46 111.34 152.01 111.19 151.57C108.48 144.99 106.26 138.26 104.71 131.31C103.79 127.2 103.03 123.06 102.15 118.73C102.15 119.33 102.09 119.72 102.15 120.1C102.86 124.14 103.5 128.19 104.35 132.2C105.67 138.4 107.73 144.38 110.2 150.21C110.41 150.71 110.43 151.44 111.2 151.55L111.22 151.54ZM271.97 350.85L271.99 351.08C275.14 350.79 278.29 350.55 281.43 350.2C283.52 349.97 285.61 349.63 287.68 349.26C289.48 348.94 291.25 348.43 293.06 348.14C295.11 347.81 297.07 347.28 298.92 346.34C301.2 345.18 303.53 344.13 305.8 342.96C307.72 341.97 309.62 340.94 311.48 339.83C312.81 339.03 313.99 337.98 315.34 337.21C319.37 334.9 322.87 331.91 326.33 328.87C329.82 325.81 332.41 321.96 335.39 318.44C338.19 315.14 341.06 311.89 343.93 308.66C344.59 307.92 345.49 307.39 346.14 306.64C348.03 304.47 350.07 302.45 351.79 300.1C353.04 298.39 354.03 296.41 355.77 295.07C355.98 294.91 356.1 294.63 356.25 294.39C357.11 292.97 357.98 291.55 358.82 290.11C359.85 288.34 361.11 286.64 361.82 284.74C363.22 281.01 364.83 277.38 365.82 273.47C366.81 269.55 367.58 265.58 368.51 261.65C368.8 260.41 369.04 259.15 369.22 257.89C369.44 256.35 369.55 254.8 369.73 253.26C369.9 251.83 370.18 250.4 370.27 248.97C370.41 246.59 370.43 244.21 370.49 241.83C370.57 238.65 370.29 235.54 369.48 232.43C368.71 229.48 368.25 226.45 367.63 223.47C367.31 221.96 366.99 220.44 366.58 218.95C365.63 215.47 364.73 211.98 363.62 208.55C362.28 204.38 360.59 200.31 359.33 196.12C357.02 188.45 353.76 181.23 349.33 174.58C343.28 165.5 335.88 157.61 327.34 150.81C324.82 148.81 322.19 146.94 319.48 145.2C315.32 142.53 311.02 140.08 306.85 137.43C300.86 133.63 294.55 130.55 287.7 128.63C286.21 128.21 284.71 127.44 283.22 127.44C280.42 127.43 278.02 125.94 275.29 125.74C273.09 125.58 270.94 124.89 268.74 124.71C264.32 124.34 259.89 124.52 255.47 124.69C254.64 124.72 253.8 124.78 252.99 124.96C250.12 125.6 247.25 126.15 244.27 126.01C243.46 125.97 242.62 126.22 241.81 126.39C240.43 126.67 239.09 126.77 237.71 126.24C237.11 126.01 236.4 126 235.74 126.02C233.46 126.09 231.19 126.18 228.92 126.35C227.44 126.46 225.95 126.63 224.49 126.92C223.09 127.2 221.71 127.66 220.34 128.08C219.2 128.43 218.71 129.75 219.31 130.76C219.51 131.09 219.73 131.44 220.03 131.67C220.74 132.24 220.65 132.84 220.36 133.6C219.99 134.58 219.39 134.97 218.35 134.97C215.3 134.97 212.23 134.9 209.23 135.61C208.86 135.7 208.45 135.63 208.07 135.67C205.7 135.93 203.32 136.09 200.98 136.51C198.31 136.99 195.65 137.61 193.04 138.34C190.47 139.06 187.91 139.92 185.79 141.62C183.63 143.35 181.59 145.24 179.53 147.09C178.25 148.24 176.95 149.33 175.36 150.09C172.48 151.45 169.83 153.18 167.7 155.6C165.53 158.07 163.82 160.86 162.1 163.66C160.5 166.26 158.95 168.9 157.19 171.38C155.97 173.09 154.36 174.5 153.03 176.14C149.96 179.94 147.07 183.89 143.91 187.61C140.57 191.55 138.78 196.13 137.8 201.09C137.08 204.74 136.43 208.4 135.73 212.06C135.2 214.84 134.56 217.59 134.14 220.38C133.75 222.95 133.63 225.57 133.32 228.16C132.88 231.82 133.04 235.48 133.28 239.14C133.46 241.85 133.77 244.6 133.57 247.29C133.19 252.46 133.93 257.51 135.01 262.49C135.83 266.28 137.07 269.99 138.33 273.66C140.03 278.61 142.5 283.21 145.1 287.75C146.12 289.52 147.13 291.36 147.72 293.3C148.86 297.03 150.24 300.65 151.82 304.2C152.67 306.12 153.69 307.96 155.05 309.62C157.85 313.03 161.14 315.92 164.54 318.7C165.9 319.82 167.23 321.06 168.27 322.47C172.32 327.97 177.18 332.69 182.34 337.09C184.39 338.84 186.73 340.32 189.1 341.64C192.54 343.56 196.04 345.43 199.66 346.95C204.28 348.89 209.23 349.75 214.17 350.51C214.86 350.62 215.59 350.85 216.17 351.23C218.49 352.73 220.96 353.69 223.74 354.02C228.12 354.55 232.49 354.78 236.86 354.19C239.27 353.87 241.61 353.93 243.97 354.48C244.67 354.65 245.38 354.85 246.1 354.89C247.92 355 249.77 355.23 251.58 355.05C255.98 354.61 260.11 353.07 264.29 351.72C265.64 351.28 267.07 351.02 268.49 350.84C269.64 350.7 270.82 350.81 271.99 350.81L271.97 350.85ZM149.09 354.72C149.18 354.57 149.27 354.42 149.37 354.27C148.55 353.56 147.79 352.77 146.91 352.15C145.27 350.99 143.46 350.05 141.9 348.8C135.48 343.64 129.5 338.06 125.05 331.03C124.82 330.67 124.53 330.35 124.27 330.01C124.17 330.27 124.2 330.43 124.27 330.56C128.77 337.95 134.09 344.66 140.72 350.29C141.79 351.2 142.95 351.88 144.28 352.37C145.41 352.79 146.43 353.48 147.51 354.03C148.02 354.29 148.57 354.49 149.1 354.72H149.09ZM390.6 289.72C392.14 286.72 394.64 271.59 394.18 268.67C393.43 269.46 393.41 270.41 393.28 271.32C392.63 276.05 392 280.78 391.33 285.5C391.13 286.91 390.84 288.31 390.6 289.72ZM320.08 382.83C317.67 382.81 309.55 386.61 308.43 388.29L320.08 382.83ZM335.69 110.5C335.69 110.5 335.61 110.5 335.57 110.5C335.57 113.26 335.54 116.02 335.59 118.79C335.59 119.33 335.89 119.87 336.06 120.41C336.17 120.38 336.27 120.35 336.38 120.33C336.15 117.06 335.92 113.78 335.69 110.51V110.5ZM260.19 402.34C260.19 402.34 260.19 402.44 260.19 402.49C260.98 402.49 261.78 402.54 262.57 402.47C263.31 402.4 264.04 402.2 264.78 402.06L264.75 401.92C263.23 402.06 261.71 402.19 260.19 402.33V402.34ZM255.92 402.65C255.92 402.65 255.92 402.69 255.92 402.71H258.39C258.39 402.71 258.39 402.67 258.39 402.65H255.92Z" fill="#B82727" stroke="#020202" stroke-width="3" stroke-miterlimit="10"/>
<path d="M144.83 241.81C145.21 212.76 154.3 188.31 172.82 167.5C181.9 157.29 192.68 149.26 204.94 143.23C216.29 137.64 228.3 134.33 240.87 133.31C270.72 130.89 296.92 139.75 319.44 159.42C330.77 169.32 339.41 181.28 345.72 194.95C350.82 206.01 354.06 217.58 355.17 229.68C357.61 256.34 351.55 280.95 336.34 303.05C321.85 324.09 302.06 337.89 277.5 344.85C270.53 346.82 263.4 347.85 256.16 348.28C216.19 350.66 177.39 329.06 157.75 292.12C151.26 279.91 147.18 266.94 145.67 253.2C145.21 249.01 145.05 244.79 144.84 241.82L144.83 241.81ZM340.67 200.55C339.86 201 339.33 201.28 338.81 201.59C335.85 203.34 332.69 204.46 329.26 204.84C324.09 205.41 319.06 204.65 314.11 203.23C305.32 200.71 297.39 196.3 289.51 191.84C282.79 188.03 276.24 183.9 269.12 180.85C267.35 180.09 265.46 179.52 263.57 179.12C259.55 178.29 255.49 178.57 251.45 179.01C242.05 180.04 233.33 182.96 225.58 188.46C221.25 191.53 217.24 195.02 214.35 199.51C209.74 206.66 208.62 214.6 209.92 222.89C210.82 228.64 213.64 233.41 218.04 237.24C220.23 239.15 222.96 240.01 225.54 241.17C225.94 241.35 226.45 241.27 227.11 241.32C227.11 240.32 227.09 239.56 227.11 238.79C227.32 232.27 229.76 226.69 234.35 222.1C235.23 221.22 235.76 220.34 236.01 219.15C237.13 213.72 238.96 208.55 241.96 203.85C244.94 199.18 248.92 195.7 253.99 193.4C260.47 190.46 267.24 190.1 274.09 191.29C287.11 193.55 297.51 200.29 305.67 210.55C309.79 215.72 312.88 221.5 315.06 227.74C315.68 229.51 316.18 231.36 316.45 233.22C317.37 239.41 317.4 245.63 316.43 251.82C315.99 254.62 315.64 257.44 314.92 260.17C313.92 263.98 312.64 267.72 311.46 271.48C309.98 276.2 308.4 280.89 307.01 285.63C305.29 291.5 303.67 297.4 303.03 303.51C302.73 306.29 302.77 309.06 303.53 311.78C303.98 313.37 304.76 314.75 305.99 315.86C307.59 317.3 309.56 317.43 311.27 316.15C312.52 315.22 313.79 314.32 314.95 313.28C325.72 303.67 334.16 292.35 339.98 279.11C341.53 275.59 342.57 271.91 343.76 268.26C346.81 258.88 348.37 249.27 348.4 239.42C348.41 236.09 348.15 232.76 347.88 229.44C347.22 221.42 345.39 213.65 342.79 206.05C342.18 204.27 341.45 202.54 340.67 200.54V200.55ZM265.57 231.3C265.65 231.99 265.69 232.51 265.77 233.02C266.94 240.42 265.46 247.06 260.01 252.48C259.3 253.18 259.19 253.98 259.02 254.86C258.43 257.85 258.04 260.92 257.08 263.8C254.64 271.12 250.2 277.06 243.39 280.82C235.1 285.4 226.25 286.3 217.07 283.93C211.45 282.48 206.43 279.77 201.55 276.75C196.21 273.45 191.92 269.1 188.45 263.89C186.03 260.27 184.07 256.43 182.52 252.35C180.18 246.22 178.64 239.98 178.78 233.34C178.91 227.14 179.6 221.03 181.14 215.03C183.17 207.16 185.85 199.51 189.39 192.17C191.47 187.86 193.2 183.41 194.45 178.77C195.41 175.23 195.11 171.82 193.52 168.54C192.65 166.74 191.65 165.01 190.64 163.28C190.38 162.83 189.89 162.52 189.45 162.09C188.83 162.52 188.31 162.83 187.85 163.21C186.79 164.1 185.73 165.01 184.71 165.96C165.4 184.02 154.88 206.29 152.9 232.61C152.25 241.31 153.02 249.92 154.64 258.48C155.83 264.81 158.07 270.78 160.68 276.62C161.21 277.8 161.51 277.92 162.76 277.6C164.8 277.08 166.83 276.45 168.9 276.04C179.28 273.98 189.26 274.89 198.59 280.25C200.56 281.38 202.6 282.46 204.41 283.82C207.26 285.97 210.11 288.05 213.3 289.68C217.17 291.67 221.15 293.39 225.28 294.69C231.07 296.51 237.03 296.95 243.09 296.54C254.32 295.77 264.49 292.1 273.45 285.3C280.72 279.78 285.65 272.74 286.7 263.41C286.77 262.8 286.84 262.2 286.94 261.59C287.7 256.96 287.23 252.48 285.07 248.28C283.9 246.01 282.67 243.74 281.18 241.69C278.48 237.97 275.12 234.9 271.04 232.69C269.4 231.8 267.64 231.48 265.57 231.3ZM283.62 331.79C282.97 329.78 282.48 327.96 281.79 326.21C279.95 321.55 279.83 316.79 280.7 311.94C282.13 303.97 285.09 296.57 289.1 289.57C291.58 285.23 294.18 280.95 296.56 276.55C299.93 270.33 302.79 263.89 304.62 257.02C305.99 251.9 306.47 246.75 305.59 241.5C304.18 233.12 300.64 225.6 295.93 218.65C293.05 214.4 289.42 210.75 285.24 207.74C281.67 205.17 278 202.77 273.68 201.58C268.16 200.05 262.68 199.94 257.33 202.15C250.51 204.96 245.85 209.99 242.85 216.65C242.72 216.93 242.72 217.27 242.63 217.72C243.4 217.72 244.05 217.72 244.71 217.72C249.93 217.67 254.71 219.08 258.94 222.14C259.84 222.79 260.72 223.15 261.79 223.33C263.92 223.69 266.09 223.99 268.12 224.69C270.37 225.46 272.54 226.52 274.62 227.69C283.24 232.55 288.89 239.88 291.43 249.36C293.71 257.86 293.08 266.45 289.96 274.62C286.1 284.74 279.38 292.78 270.57 299.1C264.48 303.47 257.62 306.14 250.51 308.3C243.43 310.46 236.49 310.12 229.59 307.51C226.68 306.41 223.71 305.47 220.78 304.44C214.91 302.37 209.05 300.29 203.18 298.22C200.83 297.39 198.48 296.52 196.11 295.74C194.66 295.26 193.19 295.21 191.69 295.66C188.18 296.73 184.66 297.75 181.15 298.78C179.55 299.25 177.94 299.66 176.35 300.15C175.86 300.3 175.43 300.6 174.77 300.93C177.21 303.98 179.41 306.91 182.17 309.34C183.88 310.85 185.61 312.33 187.34 313.81C189.4 315.58 191.37 317.5 193.56 319.09C211.71 332.25 232.05 338.33 254.43 337.59C263.77 337.28 272.87 335.61 281.7 332.54C282.27 332.34 282.82 332.1 283.63 331.79H283.62ZM214.33 147.43C214.66 151.23 215.08 154.88 215.28 158.53C215.78 167.58 214.03 176.12 209.21 183.9C208.57 184.94 207.95 186 207.28 187.02C203.57 192.64 200.33 198.54 197.32 204.56C196.06 207.08 195.03 209.75 194.19 212.45C191.36 221.58 190.49 230.95 191.46 240.45C192.65 252.14 196.93 262.36 206.03 270.22C209.69 273.38 213.62 276.03 218.31 277.39C220.39 277.99 222.49 278.54 224.61 278.97C229.3 279.91 233.91 279.41 238.37 277.75C244.15 275.6 248.06 271.38 250.83 266.04C252.07 263.66 252.79 261.07 252.85 258.36C252.88 257.03 252.5 256.81 251.27 256.98C249.3 257.24 247.31 257.55 245.32 257.56C240.04 257.58 235.59 255.39 231.9 251.79C230.56 250.48 229.32 249.61 227.44 249.83C227.11 249.87 226.77 249.81 226.44 249.8C220.26 249.51 214.68 247.54 209.83 243.67C204.31 239.27 201.11 233.48 200.06 226.57C198.54 216.53 200.55 206.99 204.69 197.84C205.49 196.08 206.45 194.36 207.55 192.76C214.05 183.3 222.43 176.02 232.98 171.36C234.7 170.6 236.53 170.07 238.31 169.46C245.61 166.96 253.14 166.12 260.82 166.53C265.12 166.76 269.28 167.71 273.35 169.1C280.08 171.4 286.81 173.67 293.32 176.59C298.74 179.02 304.25 181.28 309.98 182.94C312.92 183.79 315.88 183.92 318.89 183.42C322.66 182.79 325.09 180.48 326.78 177.25C300.18 142.59 251.89 131.33 214.34 147.44L214.33 147.43Z" fill="#EEB067" stroke="black" stroke-width="2" stroke-miterlimit="10"/>
</svg>
