<svg width="491" height="491" viewBox="0 0 491 491" fill="none" xmlns="http://www.w3.org/2000/svg">
<g filter="url(#filter0_b_204_18)">
<path d="M77.1985 349.497C85.9633 344.425 92.8138 337.522 97.2314 328.353C98.8064 325.087 99.9332 321.623 101.207 318.229C102.238 315.488 103.326 312.767 104.364 310.026C105.343 307.446 106.259 304.846 107.251 302.272C108.256 299.646 109.351 297.059 110.35 294.434C111.496 291.431 112.571 288.402 113.705 285.399C114.652 282.895 115.638 280.404 116.605 277.907C117.668 275.166 118.679 272.413 119.748 269.679C120.869 266.816 122.002 263.96 123.097 261.085C124.557 257.23 126.016 253.363 127.508 249.521C129.064 245.519 130.588 241.504 132.175 237.508C133.866 233.263 135.37 228.947 137.016 224.682C138.443 220.981 140.037 217.35 141.395 213.63C143.072 209.019 144.974 204.499 146.6 199.869C148.028 195.816 149.769 191.871 151.318 187.856C152.97 183.572 154.456 179.212 156.21 174.966C158.118 170.356 159.808 165.669 161.645 161.033C163.252 156.979 164.718 152.868 166.293 148.802C168.445 143.263 170.673 137.75 172.811 132.205C174.456 127.946 175.948 123.637 177.651 119.404C178.477 117.342 179.354 115.319 179.943 113.161C180.443 111.342 180.135 109.646 179.437 108.019C177.766 104.113 176.364 100.105 174.898 96C175.449 96 175.942 96 176.435 96C206.615 96 236.802 96 266.983 96C268.673 96 268.654 96 267.982 97.492C266.151 101.565 264.3 105.631 262.54 109.735C261.976 111.048 262.04 112.457 262.572 113.821C264.102 117.752 265.639 121.69 267.15 125.628C269.666 132.179 272.15 138.749 274.679 145.293C276.702 150.531 278.776 155.756 280.806 160.994C283.597 168.204 286.376 175.421 289.154 182.638C291.466 188.631 293.77 194.625 296.082 200.612C298.425 206.689 300.768 212.759 303.118 218.829C305.615 225.297 308.118 231.758 310.615 238.225C312.843 243.982 315.077 249.739 317.305 255.495C319.553 261.29 321.806 267.085 324.06 272.88C326.467 279.066 328.894 285.245 331.269 291.444C335.917 303.565 340.969 315.508 347.019 327.002C351.763 336.018 356.917 344.784 363.197 352.82C373.07 365.447 385.151 375.366 399.819 382.007C403.897 383.851 408.046 385.528 412.406 386.598C412.816 386.7 413.232 386.771 414 386.931C412.419 387.417 411.119 387.802 409.832 388.211C405.44 389.633 401.016 390.952 396.522 392.009C393.577 392.7 390.587 393.148 387.584 393.539C386.579 393.667 385.484 393.424 384.543 394H366.949C366.162 393.353 365.169 393.673 364.305 393.545C361.315 393.11 358.377 392.534 355.431 391.855C352.224 391.112 349.074 390.184 345.988 389.063C339.137 386.579 332.607 383.428 326.461 379.471C323.509 377.569 320.583 375.648 317.805 373.509C315.545 371.774 313.381 369.911 311.172 368.111C307.107 364.788 303.547 360.965 299.891 357.251C296.229 353.531 293.021 349.381 289.916 345.174C284.205 337.445 279.474 329.121 275.281 320.502C273.661 317.172 272.348 313.689 270.946 310.25C269.493 306.69 268.084 303.111 266.701 299.531C265.414 296.208 264.204 292.852 262.924 289.529C260.696 283.74 258.5 277.939 256.189 272.189C254.127 267.053 252.219 261.86 250.113 256.744C248.058 251.749 246.31 246.633 244.364 241.6C242.193 235.99 239.92 230.426 237.744 224.823C236.047 220.456 234.453 216.044 232.756 211.677C230.976 207.111 229.088 202.59 227.314 198.025C225.432 193.178 223.633 188.292 221.776 183.432C219.599 177.739 217.435 172.046 215.201 166.373C212.768 160.2 210.367 154.015 207.96 147.829C206.078 143.001 204.183 138.166 202.383 133.3C200.776 128.952 199.048 124.649 197.364 120.333C197.223 119.974 197.063 119.628 196.833 119.091C196.276 120.512 195.789 121.767 195.296 123.022C193.92 126.512 192.524 129.989 191.167 133.492C189.925 136.713 188.772 139.966 187.504 143.174C185.315 148.706 183.17 154.251 181.025 159.797C178.695 165.81 176.371 171.822 174.047 177.841C172.158 182.727 170.308 187.632 168.387 192.505C166.204 198.044 164.161 203.647 162.023 209.205C159.962 214.565 157.849 219.912 155.774 225.271C153.63 230.823 151.517 236.387 149.366 241.939C147.707 246.236 146.004 250.52 144.34 254.816C142.208 260.336 140.114 265.869 137.982 271.388C135.882 276.825 133.738 282.248 131.65 287.691C128.891 294.869 126.183 302.073 123.417 309.251C121.349 314.605 119.147 319.913 117.143 325.292C116.125 328.02 115.036 330.722 114.031 333.456C113.82 334.032 113.961 334.257 114.569 334.218C114.87 334.199 115.171 334.218 115.472 334.218C135.434 334.218 155.397 334.237 175.359 334.205C183.202 334.193 191.058 334.314 198.881 333.936C207.877 333.495 216.648 331.823 224.593 327.2C227.09 325.746 229.44 324.075 231.681 322.237C238.493 316.654 242.814 309.341 246.457 301.503C249.37 295.241 252.431 289.042 255.433 282.818C255.568 282.537 255.728 282.255 256.003 282.005C256.259 283.247 255.798 284.413 255.574 285.572C254.716 289.926 253.762 294.261 252.86 298.609C252.04 302.547 251.227 306.485 250.42 310.423C249.505 314.899 248.602 319.375 247.686 323.845C247.008 327.168 246.304 330.485 245.618 333.808C244.837 337.599 244.069 341.39 243.294 345.187C243.032 346.461 242.725 347.736 242.539 349.023C242.449 349.625 242.257 349.881 241.662 349.823C241.489 349.804 241.316 349.823 241.143 349.823C186.691 349.823 132.233 349.823 77.7811 349.823C77.5634 349.823 77.3522 349.81 77.1345 349.804C77.1537 349.708 77.1729 349.612 77.1921 349.516L77.1985 349.497Z" fill="#392B3E"/>
<path d="M220.931 261.469C220.733 261.802 220.579 262.103 220.393 262.385C213.645 272.637 206.891 282.889 200.162 293.153C199.323 294.434 198.388 295.657 197.774 297.091C197.326 298.154 196.82 298.122 196.192 297.175C192.876 292.174 189.502 287.205 186.23 282.172C181.89 275.486 177.562 268.795 173.035 262.238C172.593 261.598 172.901 261.22 173.208 260.746C175.481 257.288 177.805 253.862 180.014 250.36C182.613 246.236 185.481 242.279 188.061 238.142C190.667 233.973 193.619 230.035 196.084 225.784C196.66 224.791 196.877 225.002 197.409 225.816C201.295 231.777 205.22 237.713 209.144 243.649C212.832 249.22 216.545 254.778 220.24 260.342C220.476 260.695 220.688 261.066 220.925 261.457L220.931 261.469Z" fill="#9C4CBF"/>
<path d="M196.781 216.723C193.945 221.045 191.173 225.271 188.394 229.491C186.083 233 183.746 236.496 181.473 240.025C180.916 240.883 180.641 241.03 180.02 240.057C177.792 236.548 175.519 233.071 173.176 229.632C172.677 228.896 172.785 228.396 173.189 227.788C178.349 219.969 183.509 212.157 188.663 204.339C191.135 200.586 193.599 196.827 196.02 193.043C196.628 192.095 196.909 192.108 197.537 193.069C203.773 202.616 210.053 212.125 216.321 221.653C217.711 223.766 219.074 225.892 220.477 227.993C220.797 228.467 220.905 228.832 220.541 229.376C218.146 232.981 215.79 236.612 213.415 240.23C213.075 240.742 212.813 241.139 212.249 240.268C207.365 232.725 202.422 225.214 197.492 217.696C197.306 217.414 197.089 217.152 196.769 216.716L196.781 216.723Z" fill="#24F3CC"/>
<path d="M77.1985 349.497C77.1792 349.593 77.1608 349.69 77.1415 349.786C77.0965 349.747 77.045 349.702 77 349.664C77.0643 349.612 77.135 349.555 77.1993 349.503L77.1985 349.497Z" fill="#B20342"/>
<path d="M77.1985 349.497C77.1792 349.593 77.1608 349.69 77.1415 349.786C77.0965 349.747 77.045 349.702 77 349.664C77.0643 349.612 77.135 349.555 77.1993 349.503L77.1985 349.497Z" fill="black" fill-opacity="0.2"/>
</g>
<defs>
<filter id="filter0_b_204_18" x="63.8" y="82.8" width="363.4" height="324.4" filterUnits="userSpaceOnUse" color-interpolation-filters="sRGB">
<feFlood flood-opacity="0" result="BackgroundImageFix"/>
<feGaussianBlur in="BackgroundImageFix" stdDeviation="6.6"/>
<feComposite in2="SourceAlpha" operator="in" result="effect1_backgroundBlur_204_18"/>
<feBlend mode="normal" in="SourceGraphic" in2="effect1_backgroundBlur_204_18" result="shape"/>
</filter>
</defs>
</svg>
