<svg width="491" height="491" viewBox="0 0 491 491" fill="none" xmlns="http://www.w3.org/2000/svg">
<path d="M230.625 160.739C256.114 150.212 281.549 139.702 307.238 129.084C308.074 143.677 313.87 156.02 321.391 167.727C325.37 173.917 329.439 180.034 333.236 186.332C340.431 198.293 346.008 210.727 347.48 224.993C349.678 246.448 345.027 265.724 331.256 282.405C321.082 294.729 307.693 301.645 291.905 303.877C283.602 305.057 275.281 305.22 267.124 302.97C250.119 298.287 239.673 287.85 236.657 269.88C234.222 255.378 244.378 237.663 259.966 233.724C266.397 232.108 272.375 232.381 277.389 237.354C281.404 241.347 282.548 246.883 280.35 251.475C278.097 256.177 272.447 259.153 267.033 258.5C262.437 257.937 257.949 253.563 257.132 248.027C256.696 245.068 255.569 245.667 253.916 246.593C248.357 249.751 246.358 255.087 245.668 260.95C243.779 276.887 254.37 291.299 269.886 295.255C288.471 299.975 308.819 286.87 311.853 266.323C314.633 247.537 309.6 230.293 299.626 214.357C294.376 205.989 288.253 198.221 282.694 190.053C275.736 179.852 270.558 168.962 269.177 156.546C268.923 154.277 268.214 154.259 266.397 155.003C254.879 159.759 243.306 164.424 231.733 169.052C230.316 169.615 229.935 170.45 229.735 171.938C228.282 182.883 227.5 193.901 226.374 204.864C225.084 217.334 224.484 229.912 223.122 242.382C222.068 252.038 221.414 261.749 220.379 271.423C219.597 278.575 218.98 285.781 218.362 292.968C217.417 303.768 215.927 314.532 215.019 325.331C213.929 338.364 211.349 351.196 210.259 364.229C209.514 373.123 212.766 379.639 219.725 384.794C222.795 387.063 222.722 387.226 219.797 389.785C214.565 394.359 208.951 398.516 204.9 404.306C203.446 406.393 201.666 406.684 200.085 404.433C195.907 398.498 190.275 394.051 184.843 389.404C182.626 387.498 182.88 386.282 185.133 384.921C185.388 384.757 185.587 384.521 185.842 384.358C194.108 378.84 195.362 370.654 194.381 361.688C193.672 355.208 193.036 348.71 192.037 342.266C190.129 329.96 189.602 317.527 188.385 305.166C187.313 294.293 186.423 283.385 185.369 272.512C184.406 262.493 183.298 252.51 182.372 242.491C181.845 236.937 181.627 231.346 181.118 225.774C180.246 216.299 179.32 206.824 178.284 197.368C178.102 195.643 178.938 193.048 177.339 192.394C176.14 191.904 174.087 193.483 172.434 194.191C163.623 197.894 154.811 201.561 146.054 205.372C143.874 206.316 142.948 206.534 143.002 203.575C143.129 197.186 143.002 197.168 149.07 194.645C157.7 191.051 166.33 187.457 174.977 183.863C175.977 183.446 177.085 183.283 176.921 181.703C176.122 174.207 176.467 166.602 174.741 159.178C173.233 152.68 170.036 147.271 165.003 142.897C162.187 140.446 159.48 137.887 156.846 135.255C154.339 132.75 154.448 132.315 157.155 130.064C167.874 121.188 178.611 112.294 187.604 101.585C191.038 97.5015 193.999 93.0364 197.36 88.8798C201.466 83.7794 204.173 83.5979 207.697 88.9887C218.071 104.834 232.206 116.996 246.195 129.338C249.865 132.587 249.901 132.623 246.286 136.127C244.051 138.305 241.835 140.555 239.309 142.389C233.169 146.854 230.516 152.898 230.643 160.703L230.625 160.739Z" fill="#FFC87E"/>
<path d="M233.823 320.667C234.949 320.54 235.294 320.939 235.567 321.356C239.527 327.491 245.65 331.448 250.809 336.349C254.879 340.215 254.97 340.36 250.719 344.081C245.777 348.401 241.162 352.975 237.22 358.257C234.858 361.415 233.968 361.434 231.842 358.293C227.482 351.832 221.323 347.221 215.764 341.994C214.438 340.742 213.911 339.943 215.746 338.563C222.177 333.808 227.936 328.344 232.805 321.974C233.223 321.411 233.677 320.866 233.841 320.648L233.823 320.667Z" fill="#FFC87E"/>
<path d="M190.874 339.725C190.347 340.524 190.166 340.869 189.929 341.141C189.33 341.812 188.749 342.538 188.076 343.119C182.626 347.766 177.539 352.721 173.179 358.457C170.944 361.397 169.963 361.452 167.874 358.566C163.405 352.394 157.991 347.203 152.304 342.23C150.796 340.905 150.633 339.852 152.195 338.327C158.009 332.628 164.785 327.927 169.709 321.32C170.363 320.449 171.18 320.213 171.889 321.32C176.522 328.453 183.153 333.59 189.512 338.999C189.893 339.326 190.402 339.489 190.874 339.743V339.725Z" fill="#FFC87E"/>
<path d="M230.625 160.739C256.114 150.212 281.549 139.702 307.238 129.084C308.074 143.677 313.87 156.02 321.391 167.727C325.37 173.917 329.439 180.034 333.236 186.332C340.431 198.293 346.008 210.727 347.48 224.993C349.678 246.448 345.027 265.724 331.256 282.405C321.082 294.729 307.693 301.645 291.905 303.877C283.602 305.057 275.281 305.22 267.124 302.97C250.119 298.287 239.673 287.85 236.657 269.88C234.222 255.378 244.378 237.663 259.966 233.724C266.397 232.108 272.375 232.381 277.389 237.354C281.404 241.347 282.548 246.883 280.35 251.475C278.097 256.177 272.447 259.153 267.033 258.5C262.437 257.937 257.949 253.563 257.132 248.027C256.696 245.068 255.569 245.667 253.916 246.593C248.357 249.751 246.358 255.087 245.668 260.95C243.779 276.887 254.37 291.299 269.886 295.255C288.471 299.975 308.819 286.87 311.853 266.323C314.633 247.537 309.6 230.293 299.626 214.357C294.376 205.989 288.253 198.221 282.694 190.053C275.736 179.852 270.558 168.962 269.177 156.546C268.923 154.277 268.214 154.259 266.397 155.003C254.879 159.759 243.306 164.424 231.733 169.052C230.316 169.615 229.935 170.45 229.735 171.938C228.282 182.883 227.5 193.901 226.374 204.864C225.084 217.334 224.484 229.912 223.122 242.382C222.068 252.038 221.414 261.749 220.379 271.423C219.597 278.575 218.98 285.781 218.362 292.968C217.417 303.768 215.927 314.532 215.019 325.331C213.929 338.364 211.349 351.196 210.259 364.229C209.514 373.123 212.766 379.639 219.725 384.794C222.795 387.063 222.722 387.226 219.797 389.785C214.565 394.359 208.951 398.516 204.9 404.306C203.446 406.393 201.666 406.684 200.085 404.433C195.907 398.498 190.275 394.051 184.843 389.404C182.626 387.498 182.88 386.282 185.133 384.921C185.388 384.757 185.587 384.521 185.842 384.358C194.108 378.84 195.362 370.654 194.381 361.688C193.672 355.208 193.036 348.71 192.037 342.266C190.129 329.96 189.602 317.527 188.385 305.166C187.313 294.293 186.423 283.385 185.369 272.512C184.406 262.493 183.298 252.51 182.372 242.491C181.845 236.937 181.627 231.346 181.118 225.774C180.246 216.299 179.32 206.824 178.284 197.368C178.102 195.643 178.938 193.048 177.339 192.394C176.14 191.904 174.087 193.483 172.434 194.191C163.623 197.894 154.811 201.561 146.054 205.372C143.874 206.316 142.948 206.534 143.002 203.575C143.129 197.186 143.002 197.168 149.07 194.645C157.7 191.051 166.33 187.457 174.977 183.863C175.977 183.446 177.085 183.283 176.921 181.703C176.122 174.207 176.467 166.602 174.741 159.178C173.233 152.68 170.036 147.271 165.003 142.897C162.187 140.446 159.48 137.887 156.846 135.255C154.339 132.75 154.448 132.315 157.155 130.064C167.874 121.188 178.611 112.294 187.604 101.585C191.038 97.5015 193.999 93.0364 197.36 88.8798C201.466 83.7794 204.173 83.5979 207.697 88.9887C218.071 104.834 232.206 116.996 246.195 129.338C249.865 132.587 249.901 132.623 246.286 136.127C244.051 138.305 241.835 140.555 239.309 142.389C233.169 146.854 230.516 152.898 230.643 160.703L230.625 160.739Z" stroke="#2E1314" stroke-width="5"/>
<path d="M233.823 320.667C234.949 320.54 235.294 320.939 235.567 321.356C239.527 327.491 245.65 331.448 250.809 336.349C254.879 340.215 254.97 340.36 250.719 344.081C245.777 348.401 241.162 352.975 237.22 358.257C234.858 361.415 233.968 361.434 231.842 358.293C227.482 351.832 221.323 347.221 215.764 341.994C214.438 340.742 213.911 339.943 215.746 338.563C222.177 333.808 227.936 328.344 232.805 321.974C233.223 321.411 233.677 320.866 233.841 320.648L233.823 320.667Z" stroke="#2E1314" stroke-width="5"/>
<path d="M190.874 339.725C190.347 340.524 190.166 340.869 189.929 341.141C189.33 341.812 188.749 342.538 188.076 343.119C182.626 347.766 177.539 352.721 173.179 358.457C170.944 361.397 169.963 361.452 167.874 358.566C163.405 352.394 157.991 347.203 152.304 342.23C150.796 340.905 150.633 339.852 152.195 338.327C158.009 332.628 164.785 327.927 169.709 321.32C170.363 320.449 171.18 320.213 171.889 321.32C176.522 328.453 183.153 333.59 189.512 338.999C189.893 339.326 190.402 339.489 190.874 339.743V339.725Z" stroke="#2E1314" stroke-width="5"/>
</svg>
