<svg width="491" height="491" viewBox="0 0 491 491" fill="none" xmlns="http://www.w3.org/2000/svg">
<path fill-rule="evenodd" clip-rule="evenodd" d="M239.117 95C240.819 95 242.521 95 244.223 95C249.245 102.853 255.203 110.08 262.097 116.682C324.487 129.274 362.788 166.262 377 227.644C377 241.249 377 254.853 377 268.458C364.445 310.108 338.911 341.144 300.398 361.564C290.388 364.913 280.174 367.464 269.757 369.216C260.9 376.802 254.091 385.73 249.33 396C246.777 396 244.223 396 241.67 396C236.927 384.914 229.692 375.563 219.966 367.941C219.115 368.79 218.264 369.642 217.413 370.492C165.93 357.791 131.459 325.481 114 273.559C114 254.853 114 236.147 114 217.441C123.036 187.925 138.356 161.991 159.961 139.64C179.468 129.461 199.895 121.808 221.243 116.682C226.917 109.141 232.874 101.914 239.117 95ZM236.563 156.22C244.268 156.74 251.928 157.59 259.544 158.771C258.815 163.332 259.667 167.584 262.097 171.525C275.77 158.468 287.686 160.168 297.845 176.627C307.51 175.949 315.17 180.2 320.825 189.381C318.759 193.388 317.907 197.64 318.272 202.136C322.469 201.591 326.299 202.441 329.762 204.686C338.022 215.824 336.745 224.752 325.932 231.47C328.647 234.501 332.052 235.777 336.146 235.297C336.569 247.231 336.144 259.135 334.869 271.008C318.212 272.659 316.935 277.336 331.039 285.038C326.014 295.139 319.205 303.642 310.612 310.547C308.058 310.972 305.505 311.397 302.951 311.822C296.646 307.547 289.837 305.421 282.524 305.445C281.192 306.877 280.341 308.577 279.971 310.547C283.434 314.544 285.136 319.221 285.078 324.576C266.823 326.733 248.098 328.434 228.903 329.678C228.903 323.726 228.903 317.774 228.903 311.822C222.575 313.595 217.469 317.421 213.583 323.301C203.507 324.233 194.996 320.832 188.049 313.097C193.224 309.537 194.075 305.286 190.602 300.343C185.324 298.977 180.642 300.252 176.558 304.17C170.895 299.878 166.213 294.777 162.515 288.864C163.616 286.84 164.467 284.715 165.068 282.487C161.311 282.202 158.332 279.226 156.131 273.559C152.242 256.055 152.242 239.049 156.131 222.542C160.181 220.308 164.011 217.757 167.621 214.89C160.194 204.233 162.747 197.431 175.282 194.483C176.244 179.475 183.905 173.948 198.262 177.903C194.858 174.501 194.858 171.1 198.262 167.699C205.342 161.879 213.003 160.604 221.243 163.873C226.163 160.398 231.269 157.847 236.563 156.22Z" fill="#FF8A00"/>
<path fill-rule="evenodd" clip-rule="evenodd" d="M241.67 184.28C243.908 183.946 245.61 184.796 246.777 186.831C260.125 217.196 263.104 248.656 255.714 281.212C246.71 311.54 239.05 310.69 232.733 278.661C229.992 267.285 227.864 255.806 226.35 244.225C229.124 223.594 234.23 203.612 241.67 184.28Z" fill="#FF8A00"/>
</svg>
