<svg xmlns="http://www.w3.org/2000/svg" width="491" height="491" fill="none"><g fill="#B20342" fill-rule="evenodd" clip-rule="evenodd"><path d="M284 58h2v2l-3 3 1 2 3 1a968 968 0 0 1-17 47l-1-5-4 17a603 603 0 0 0 0 91h-2l-1-3-1 5-2-2a921 921 0 0 0-8-70c-3-5-5-11-6-17l3-8 10-22a1108 1108 0 0 0-63 66c1 3 2 7 5 9l28 22 11 17 5 10 4 2 12 3 1-2 4 1c5 4 10 9 13 14l7 15c3 4 6 7 11 10v2h-6l2 3h-3l7 7c1 3-1 5-4 4v2c-3 0-4 0-6-2l-2 1 2 2c0 3-1 4-3 2-5-4-8-9-9-16h1l-7-17c-3-6-8-10-15-12l-1 4h-1l-1 22h-1l-1-5 2 64v12l-1 4-3-1-1-21-3-15a454 454 0 0 1-4-30v-3a426 426 0 0 1-2-28c-7 4-12 9-16 15l-3 1a405 405 0 0 1-6 12l-2 5-10 8-1-2-6-1v-2l3-4-5 2 2-6 5-7 1-2v-1l1-1v-1l1-1c5-10 11-19 19-27 5-5 10-7 17-8l2 2 3-2a3190 3190 0 0 0-4-3l-1 1c-2 1-4 0-6-1l-10-15-10-11a893 893 0 0 1-33-27l-1-5h2c1-4 2-7 5-10l-1-2a496 496 0 0 1 86-78v-2l16-14Zm-33 30c2 0 2 1 1 1l-1-1Zm6 80 1 6-1-6Zm-52 94 6-12-6 12Zm0 0-3 4 3-4Zm-4 7-1 2 1-2Zm-1 2-1 1 1-1Zm-4 4-1 2 1-2Z"/><path d="m372 208 12-5c1 0 2 1 1 2-5 3-11 5-16 9-20 13-37 30-50 50l3-3 1 1-20 29h2a1209 1209 0 0 1-11 23 689 689 0 0 0-46 109v-3l-1 6 2 1v5h-2l-1 1h-2l-2-3-4-19v8h-1l-26-67c-5-13-11-26-18-38 0-2 1-2 2-2a5700 5700 0 0 0-26-49c-15-20-33-37-53-51l-13-7 1-2a274 274 0 0 1-5-3v-2c-2 0-3-1-5-3v-1h3l10 3c-2-2-1-3 1-3-3-1-5-2-6-4l2-1c7 3 14 7 20 12l-1 1a209 209 0 0 1 57 63v-4h2l6 13-1 1v2l9 11 8 14 2-1c1 3 3 5 5 6l6 12 20 48c4 9 6 19 8 28l-1 3v1l10-40c2-7 4-13 8-19h1v4c7-20 15-39 26-57 1-1 2-1 2 1l-1 2h1l3-5c3-3 6-7 7-11h-2l8-14v4h1l18-25-1-2a163 163 0 0 1 61-48h4v1a31069 31069 0 0 0-9 7l11-4c2 1 2 1 1 3l-4 2-1 2c-6 2-11 4-16 8Zm-257-1 1 1-1-1Zm257 1h-1 1Zm-1 0c-1 1-1 2-2 1l2-1Zm-160 42-6 12 6-12Zm-6 12-3 4 3-4Zm-8 4 1-2-1 2Zm4 3-1 2 1-2Zm-1 2-1 1 1-1Zm-4 4-1 2 1-2Zm94 41c0-2 1-4 3-4l-3 4Zm-88 7 1 3-1-3Zm14 29 1 4-1-4Zm56 1-1 3 1-3Zm-55 3Zm54 0Z"/><path d="M137 232h3c6 7 13 14 18 22l1 2h-2l-20-23v-1Zm212 0a855 855 0 0 1-20 24l5-8c4-6 10-11 15-16Zm-149 28-1 1v1l-1 1v1l-1 2-8 7-1-2 10-11h2Zm200 78v3l-1 2v3c-3 4-7 5-12 6h-11c-10-2-18-6-25-13v1c3 2 4 4 4 7h-1c-5-4-9-8-13-14l-13-24a68 68 0 0 0-17-15c-1-1 0-2 1-3 3 2 3 2 2 0l1-2-4-1v-2l2-2 6-1c7 2 13 7 18 13a1431 1431 0 0 1 22 34l6 4v3h-3c6 3 13 5 20 5l7-2 6-8c3 2 3 4 1 7l3-1h1Zm-309 6v-2l4 1-1-4c0-2 0-3 2-4l6 8c4 2 9 3 15 2l12-4v-1h-3v-2l8-5 1 2 1-1v-3l16-28c4-7 11-13 19-16l8 1 1 2v1l-4 2c1 0 2 1 1 3l2-1 1 3c-7 5-14 11-19 18l-10 20c-4 6-8 10-13 14-1 1-2 0-2-1l3-5v-1c-6 7-14 11-23 12h-13c-5 0-9-2-11-6v-3l-1-2Zm285 8c4 2 8 2 12 1 2 1 2 2 0 3-6 1-11 1-16-1l-3-2 7-1Zm-259 4h4l1 1c-2 1-4 3-7 3-4 1-9 1-13-1v-2l15-1Z"/></g></svg>