<svg width="491" height="491" viewBox="0 0 491 491" fill="none" xmlns="http://www.w3.org/2000/svg">
<path fill-rule="evenodd" clip-rule="evenodd" d="M171.566 92C243.774 92 315.981 92 388.189 92C387.84 111.571 387.44 131.142 386.988 150.711C386.881 150.925 386.776 151.138 386.668 151.351C362.616 176.117 338.6 200.913 314.621 225.741C315.131 204.037 315.692 182.333 316.302 160.63C278.995 161.614 241.691 162.653 204.388 163.75C192.46 175.241 180.532 186.733 168.604 198.225C168.524 213.582 168.497 228.94 168.524 244.298C212.068 243.744 255.617 243.344 299.17 243.098C272.112 269.494 245.055 295.89 217.997 322.287C179.523 322.68 141.044 322.92 102.56 323.007C102.219 271.923 102.032 220.837 102 169.749C125.227 143.858 148.416 117.941 171.566 92Z" fill="#D9D9D9"/>
<path fill-rule="evenodd" clip-rule="evenodd" d="M267.95 321.567C267.95 321.674 268.003 321.727 268.11 321.727C308.349 322.011 348.589 322.224 388.83 322.367C388.857 281.732 388.83 241.098 388.75 200.464C386.343 202.896 383.914 205.296 381.465 207.663C381.465 207.61 381.465 207.556 381.465 207.503C383.914 204.976 386.396 202.47 388.91 199.984C388.99 240.831 389.017 281.68 388.99 322.527C348.91 322.391 308.83 322.203 268.75 321.967C268.377 321.914 268.003 321.859 267.63 321.807C267.716 321.691 267.823 321.611 267.95 321.567Z" fill="#FFA800"/>
<path fill-rule="evenodd" clip-rule="evenodd" d="M268.11 321.727C305.895 283.705 343.68 245.685 381.465 207.663C383.914 205.296 386.343 202.896 388.75 200.464C388.83 241.098 388.857 281.732 388.83 322.367C348.589 322.224 308.349 322.011 268.11 321.727Z" fill="#FFA800"/>
<path fill-rule="evenodd" clip-rule="evenodd" d="M381.465 207.503C381.465 207.556 381.465 207.61 381.465 207.663C343.68 245.685 305.895 283.705 268.11 321.727C268.003 321.727 267.95 321.674 267.95 321.567C268.323 321.167 268.67 320.74 268.99 320.287C306.519 282.71 344.01 245.115 381.465 207.503Z" fill="#FFA800"/>
<path fill-rule="evenodd" clip-rule="evenodd" d="M138.584 336.924C149.418 336.897 160.252 336.924 171.086 337.004C175.261 337.073 179.157 338.113 182.773 340.124C187.998 343.578 190.8 348.484 191.179 354.842C191.734 360.056 190.613 364.855 187.817 369.24C186.314 371.032 184.553 372.524 182.533 373.719C179.458 375.177 176.229 376.002 172.847 376.199C163.934 376.252 155.022 376.306 146.109 376.359C145.636 376.396 145.235 376.583 144.908 376.919C144.828 377.663 144.802 378.41 144.828 379.158C154.329 379.106 163.828 379.158 173.327 379.318C176.062 385.556 178.73 391.822 181.332 398.116C181.254 398.432 181.094 398.699 180.852 398.915C163.187 399.023 145.522 399.023 127.857 398.915C127.171 398.157 126.504 397.384 125.856 396.596C125.702 389.126 125.756 381.66 126.016 374.199C126.931 367.821 130.373 363.449 136.343 361.081C138.455 360.451 140.59 359.998 142.747 359.721C151.873 359.668 160.999 359.614 170.125 359.561C171.675 359.72 172.342 359.052 172.126 357.561C171.764 357.328 171.363 357.195 170.926 357.162C157.263 357.082 143.601 357.054 129.938 357.082C129.399 355.629 128.812 354.189 128.177 352.762C131.676 347.494 135.145 342.215 138.584 336.924Z" fill="#D9D9D9"/>
<path fill-rule="evenodd" clip-rule="evenodd" d="M202.947 336.924C209.351 336.897 215.755 336.924 222.159 337.004C222.846 337.763 223.513 338.535 224.161 339.324C224.268 358.414 224.268 377.506 224.161 396.596C223.513 397.384 222.846 398.157 222.159 398.915C217.035 399.048 211.912 399.023 206.789 398.835C206.152 398.012 205.485 397.212 204.788 396.436C204.708 383.318 204.681 370.2 204.708 357.082C201.504 357.134 198.302 357.082 195.102 356.922C194.468 355.581 193.881 354.221 193.34 352.842C196.561 347.553 199.763 342.248 202.947 336.924Z" fill="#D9D9D9"/>
<path fill-rule="evenodd" clip-rule="evenodd" d="M249.217 336.924C258.664 336.897 268.11 336.924 277.556 337.004C282.702 337.18 287.239 338.886 291.165 342.124C292.974 343.987 294.335 346.147 295.248 348.603C295.562 349.905 295.935 351.185 296.369 352.442C296.421 359.748 296.476 367.053 296.529 374.359C297.452 378.632 297.4 382.897 296.369 387.157C294.303 392.688 290.433 396.287 284.761 397.956C282.55 398.484 280.308 398.803 278.036 398.915C268.27 399.023 258.503 399.023 248.737 398.915C243.854 398.847 239.425 397.434 235.448 394.676C233.4 392.923 231.879 390.789 230.885 388.277C230.483 386.828 230.056 385.388 229.604 383.958C229.806 373.558 230.126 363.159 230.565 352.762C231.318 346.32 234.6 341.706 240.412 338.924C243.261 337.795 246.196 337.129 249.217 336.924ZM248.417 355.482C258.451 355.482 268.483 355.482 278.517 355.482C278.517 357.189 278.517 358.894 278.517 360.601C268.483 360.601 258.451 360.601 248.417 360.601C248.417 358.894 248.417 357.189 248.417 355.482ZM248.417 375.319C258.451 375.319 268.483 375.319 278.517 375.319C278.517 376.919 278.517 378.518 278.517 380.118C268.483 380.118 258.451 380.118 248.417 380.118C248.417 378.518 248.417 376.919 248.417 375.319Z" fill="#D9D9D9"/>
<path d="M305.415 336.924C323.865 336.872 342.303 336.924 360.731 337.084C361.368 338.459 361.901 339.844 362.332 341.244C358.874 346.473 355.432 351.7 352.005 356.922C342.239 357.082 332.472 357.134 322.706 357.082V359.641C330.979 359.614 339.25 359.641 347.522 359.721C358.557 360.748 364.213 366.8 364.494 377.879C364.527 390.347 358.39 397.306 346.081 398.756C337.172 399.015 328.26 399.067 319.344 398.915C316.436 393.08 310.538 380.769 310.538 380.769H310.5C310.961 379.775 310.786 380.297 311.499 379.318C322.333 379.211 333.166 379.106 344 378.998C345.63 378.781 346.003 377.981 345.121 376.599C344.81 376.488 344.49 376.408 344.16 376.359C331.299 376.306 318.436 376.252 305.575 376.199C304.851 375.45 304.158 374.676 303.493 373.879C303.306 362.361 303.28 350.842 303.413 339.324C304.081 338.519 304.748 337.72 305.415 336.924Z" fill="#D9D9D9"/>
</svg>
