<svg width="491" height="491" viewBox="0 0 491 491" fill="none" xmlns="http://www.w3.org/2000/svg">
<path d="M249.777 54C254.332 54.9523 259.027 55.4717 263.409 56.9301C279.364 62.2308 290.918 72.2929 295.952 88.7745C298.902 98.437 298.043 108.206 295.699 117.849C290.944 137.413 281.035 154.315 268.43 169.777C267.957 170.357 267.477 170.936 267.031 171.482C272.039 171.482 276.973 171.669 281.895 171.435C289.2 171.096 296.492 170.477 303.79 169.95C308.245 169.631 311.941 167.713 314.365 163.984C316.895 160.095 319.06 155.959 321.357 151.917C321.703 151.311 321.916 150.625 322.356 149.587C324.187 153.575 326.019 157.191 327.53 160.941C329.555 165.975 331.386 171.083 333.191 176.197C335.135 181.711 333.843 186.818 330.76 191.54C326.631 197.859 320.678 202.061 314.072 205.424C313.739 205.591 313.326 205.611 312.6 205.364C313.093 204.638 313.559 203.893 314.079 203.193C316.802 199.564 319.885 196.154 322.19 192.279C325.746 186.299 323.615 182.463 316.702 181.597C309.177 180.652 301.732 181.651 294.314 182.729C285.577 183.995 277.027 186.046 268.916 189.588C266.225 190.761 263.582 192.172 261.191 193.87C252.114 200.323 249.631 209.793 254.166 219.948C254.672 221.08 255.084 222.325 255.87 223.238C257.515 225.169 257.335 227.286 257.116 229.564C255.258 248.576 254.558 267.621 255.737 286.707C256.696 302.263 257.808 317.819 258.521 333.388C259.087 345.854 258.234 358.3 256.996 370.713C254.851 392.242 250.889 413.472 246.368 434.608C246.254 435.147 245.782 435.607 245.475 436.106C245.209 435.634 244.809 435.194 244.703 434.688C240.334 414.371 236.539 393.953 234.314 373.277C232.463 356.096 231.87 338.882 232.969 321.628C233.921 306.604 235.233 291.588 235.693 276.545C236.039 265.231 235.38 253.883 234.98 242.563C234.8 237.495 234.135 232.441 233.802 227.373C233.742 226.454 234.108 225.462 234.461 224.576C235.786 221.253 237.604 218.063 238.47 214.627C240.428 206.869 237.691 200.443 231.771 195.329C226.936 191.153 221.109 188.843 215.116 186.945C203.555 183.289 191.695 181.404 179.576 181.271C176.952 181.244 174.241 181.564 171.718 182.25C167.496 183.395 166.017 186.325 167.935 190.268C169.54 193.571 171.844 196.554 173.955 199.597C174.961 201.042 176.259 202.288 177.378 203.659C177.798 204.172 178.091 204.792 178.716 205.81C177.778 205.604 177.318 205.597 176.952 205.411C170.199 201.928 164.113 197.639 160.011 191.054C157.24 186.605 156.175 181.877 157.693 176.67C160.39 167.393 164.379 158.663 168.654 149.833C170.033 152.636 171.278 155.267 172.603 157.851C173.223 159.056 173.995 160.181 174.701 161.34C177.911 166.608 182.306 169.924 188.719 170.19C200.219 170.663 211.713 171.236 223.213 171.755C223.36 171.762 223.52 171.662 223.746 171.589C221.122 168.172 218.445 164.903 215.995 161.46C205.766 147.083 197.742 131.66 194.346 114.166C192.375 104.024 192.275 93.9154 196.457 84.2262C202.876 69.3429 214.556 60.5394 229.833 56.1975C233.435 55.1587 237.211 54.7125 240.914 54C243.87 54 246.82 54 249.777 54ZM250.922 172.115C253.513 169.358 255.724 166.92 258.028 164.563C272.565 149.713 282.174 132.332 285.064 111.569C285.943 105.243 286.476 98.8366 284.259 92.6368C279.031 78.0265 268.643 69.203 253.473 66.4794C240.348 64.122 228.128 66.6459 217.919 75.7291C209.988 82.7812 205.24 91.5913 205.393 102.453C205.673 121.804 212.485 138.932 224.119 154.128C228.84 160.295 234.394 165.822 239.575 171.629C239.655 171.722 239.881 171.682 240.135 171.715C240.135 168.172 240.281 164.69 240.101 161.22C239.735 154.241 236.765 148.648 230.858 144.739C230.505 144.506 230.212 144.193 229.806 143.853C235.46 141.782 238.203 139.551 240.767 134.017C242.419 130.455 243.471 126.612 244.796 122.896C244.989 122.35 245.176 121.804 245.362 121.252C245.955 121.877 246.095 122.437 246.268 122.983C247.08 125.573 247.719 128.23 248.752 130.728C251.189 136.621 254.259 142.015 261.371 143.833C260.585 144.419 259.986 144.865 259.386 145.305C255.917 147.855 253.3 151.052 252.021 155.227C250.363 160.634 250.909 166.175 250.916 172.108L250.922 172.115Z" fill="#D9D9D9"/>
<path d="M249.777 54C254.332 54.9523 259.027 55.4717 263.409 56.9301C279.364 62.2308 290.918 72.2929 295.952 88.7745C298.902 98.437 298.043 108.206 295.699 117.849C290.944 137.413 281.035 154.315 268.43 169.777C267.957 170.357 267.477 170.936 267.031 171.482C272.039 171.482 276.973 171.669 281.895 171.435C289.2 171.096 296.492 170.477 303.79 169.95C308.245 169.631 311.941 167.713 314.365 163.984C316.895 160.095 319.06 155.959 321.357 151.917C321.703 151.311 321.916 150.625 322.356 149.587C324.187 153.575 326.019 157.191 327.53 160.941C329.555 165.975 331.386 171.083 333.191 176.197C335.135 181.711 333.843 186.818 330.76 191.54C326.631 197.859 320.678 202.061 314.072 205.424C313.739 205.591 313.326 205.611 312.6 205.364C313.093 204.638 313.559 203.893 314.079 203.193C316.802 199.564 319.885 196.154 322.19 192.279C325.746 186.299 323.615 182.463 316.702 181.597C309.177 180.652 301.732 181.651 294.314 182.729C285.577 183.995 277.027 186.046 268.916 189.588C266.225 190.761 263.582 192.172 261.191 193.87C252.114 200.323 249.631 209.793 254.166 219.948C254.672 221.08 255.084 222.325 255.87 223.238C257.515 225.169 257.335 227.286 257.116 229.564C255.258 248.576 254.558 267.621 255.737 286.707C256.696 302.263 257.808 317.819 258.521 333.388C259.087 345.854 258.234 358.3 256.996 370.713C254.851 392.242 250.889 413.472 246.368 434.608C246.254 435.147 245.782 435.607 245.475 436.106C245.209 435.634 244.809 435.194 244.703 434.688C240.334 414.371 236.539 393.953 234.314 373.277C232.463 356.096 231.87 338.882 232.969 321.628C233.921 306.604 235.233 291.588 235.693 276.545C236.039 265.231 235.38 253.883 234.98 242.563C234.8 237.495 234.135 232.441 233.802 227.373C233.742 226.454 234.108 225.462 234.461 224.576C235.786 221.253 237.604 218.063 238.47 214.627C240.428 206.869 237.691 200.443 231.771 195.329C226.936 191.153 221.109 188.843 215.116 186.945C203.555 183.289 191.695 181.404 179.576 181.271C176.952 181.244 174.241 181.564 171.718 182.25C167.496 183.395 166.017 186.325 167.935 190.268C169.54 193.571 171.844 196.554 173.955 199.597C174.961 201.042 176.259 202.288 177.378 203.659C177.798 204.172 178.091 204.792 178.716 205.81C177.778 205.604 177.318 205.597 176.952 205.411C170.199 201.928 164.113 197.639 160.011 191.054C157.24 186.605 156.175 181.877 157.693 176.67C160.39 167.393 164.379 158.663 168.654 149.833C170.033 152.636 171.278 155.267 172.603 157.851C173.223 159.056 173.995 160.181 174.701 161.34C177.911 166.608 182.306 169.924 188.719 170.19C200.219 170.663 211.713 171.236 223.213 171.755C223.36 171.762 223.52 171.662 223.746 171.589C221.122 168.172 218.445 164.903 215.995 161.46C205.766 147.083 197.742 131.66 194.346 114.166C192.375 104.024 192.275 93.9154 196.457 84.2262C202.876 69.3429 214.556 60.5394 229.833 56.1975C233.435 55.1587 237.211 54.7125 240.914 54C243.87 54 246.82 54 249.777 54ZM250.922 172.115C253.513 169.358 255.724 166.92 258.028 164.563C272.565 149.713 282.174 132.332 285.064 111.569C285.943 105.243 286.476 98.8366 284.259 92.6368C279.031 78.0265 268.643 69.203 253.473 66.4794C240.348 64.122 228.128 66.6459 217.919 75.7291C209.988 82.7812 205.24 91.5913 205.393 102.453C205.673 121.804 212.485 138.932 224.119 154.128C228.84 160.295 234.394 165.822 239.575 171.629C239.655 171.722 239.881 171.682 240.135 171.715C240.135 168.172 240.281 164.69 240.101 161.22C239.735 154.241 236.765 148.648 230.858 144.739C230.505 144.506 230.212 144.193 229.806 143.853C235.46 141.782 238.203 139.551 240.767 134.017C242.419 130.455 243.471 126.612 244.796 122.896C244.989 122.35 245.176 121.804 245.362 121.252C245.955 121.877 246.095 122.437 246.268 122.983C247.08 125.573 247.719 128.23 248.752 130.728C251.189 136.621 254.259 142.015 261.371 143.833C260.585 144.419 259.986 144.865 259.386 145.305C255.917 147.855 253.3 151.052 252.021 155.227C250.363 160.634 250.909 166.175 250.916 172.108L250.922 172.115Z" fill="#D9D9D9"/>
</svg>
